<?xml version="1.0" encoding="utf-8"?>
<!-- Generator: Adobe Illustrator 24.1.0, SVG Export Plug-In . SVG Version: 6.00 Build 0)  -->
<svg version="1.1" id="Layer_1" xmlns="http://www.w3.org/2000/svg" xmlns:xlink="http://www.w3.org/1999/xlink" x="0px" y="0px"
	 viewBox="0 0 300 300" style="enable-background:new 0 0 300 300;" xml:space="preserve">
<style type="text/css">
	.st0{fill:#A96A36;}
	.st1{fill:#BF8E4F;}
	.st2{fill:#271710;}
	.st3{fill:#653B22;}
	.st4{fill:#814A1D;}
	.st5{fill:#997E63;}
	.st6{fill:#6B4633;}
	.st7{fill:#4D2A17;}
	.st8{fill:#55301D;}
	.st9{fill:url(#SVGID_1_);}
	.st10{fill:#905D36;}
	.st11{fill:#7E4C2E;}
	.st12{fill:#3B2217;}
	.st13{fill:#9D5B1E;}
	.st14{fill:#BB884A;}
	.st15{fill:url(#SVGID_2_);}
</style>
<g>
	<g>
		<g>
			<path class="st0" d="M266.88,84.01c-1.36-1.46-2.57-2.76-2.68-4.85c-0.21-3.97-2.3-6.96-5.23-9.38c-2.43-2-3.2-4.51-3-7.51
				c0.05-0.69,0.08-1.6-0.3-2.06c-1.33-1.59-2.66-3.3-4.33-4.46c-2.86-1.99-6.04-3.51-8.97-5.41c-2.34-1.52-4.4-3.34-4.83-6.44
				c-0.12-0.86-0.84-2-1.59-2.34c-3.1-1.39-6.26-2.76-9.52-3.67c-3.03-0.84-5.38-2.32-7.24-4.81c-1.43-1.92-3.15-3.58-5.58-4.2
				c-1.79-0.45-3.59-1.13-5.41-1.22c-3.86-0.19-6.8-2.18-9.83-4.22c-4.34-2.91-9.21-3.19-14.24-2.41c-2.78,0.43-5.51,0.7-8.22-0.26
				l-0.16,1.32c2.58,0.86,5.27,0.69,7.85,0.3c5.2-0.79,10.16-0.8,14.59,2.36c3.29,2.35,6.77,4.09,10.85,4.43
				c4.51,0.37,7.91,2.55,10.52,6.18c1.41,1.97,3.5,2.79,5.81,3.41c3.11,0.84,6.17,1.94,9.15,3.16c0.84,0.34,1.89,1.43,1.95,2.25
				c0.34,4.41,3.73,6.13,6.79,8.15c3.35,2.22,6.85,4.23,10.08,6.61c0.86,0.64,1.28,2.29,1.35,3.5c0.17,3.2,1.22,5.85,3.65,8
				c2.58,2.29,4.46,4.99,4.67,8.63c0.12,2.25,1.34,3.82,2.97,5.52c2.93,3.05,6.63,5.66,8.08,9.83l0.97-0.41
				c-0.02-0.07-0.03-0.14-0.05-0.21C273.67,89.5,269.77,87.1,266.88,84.01z"/>
			<path class="st1" d="M265.95,84.59c-1.63-1.7-2.84-3.27-2.97-5.52c-0.2-3.65-2.08-6.35-4.67-8.63c-2.43-2.16-3.48-4.8-3.65-8
				c-0.06-1.21-0.49-2.86-1.35-3.5c-3.23-2.38-6.73-4.39-10.08-6.61c-3.05-2.02-6.45-3.74-6.79-8.15c-0.06-0.82-1.11-1.9-1.95-2.25
				c-2.99-1.22-6.04-2.32-9.15-3.16c-2.31-0.62-4.4-1.45-5.81-3.41c-2.61-3.63-6.01-5.81-10.52-6.18
				c-4.08-0.34-7.55-2.08-10.85-4.43c-4.44-3.16-9.39-3.15-14.59-2.36c-2.58,0.39-5.27,0.56-7.85-0.3l-1.87,15.2
				c3.61,3.7,7.94,4.06,12.58,2.96c4.04-0.96,7.61,0.02,9.98,3.38c1.93,2.74,4.56,3.77,7.67,3.73c6.87-0.09,12.13,3.02,15.89,8.43
				c1.89,2.72,4.4,3.81,7.22,4.73c1.76,0.57,3.56,0.99,5.33,1.52c5.24,1.57,8.04,5.23,8.57,11.08c0.33,3.7,2.49,6.26,5.4,8.28
				c2.82,1.95,5.13,4.31,6.14,7.67c0.7,2.31,1.25,4.67,1.6,6c-0.34,3.34,0.36,5.43,2.08,6.87l17.7-7.51
				C272.58,90.25,268.87,87.64,265.95,84.59z"/>
			<path class="st0" d="M254.25,95.06c-0.35-1.33-0.9-3.69-1.6-6c-1.02-3.36-3.32-5.72-6.14-7.67c-2.91-2.02-5.07-4.58-5.4-8.28
				c-0.52-5.85-3.33-9.51-8.57-11.08c-1.77-0.53-3.58-0.95-5.33-1.52c-2.82-0.91-5.33-2.01-7.22-4.73
				c-3.76-5.4-9.02-8.51-15.89-8.43c-3.11,0.04-5.74-1-7.67-3.73c-2.37-3.36-5.93-4.34-9.98-3.38c-4.64,1.1-8.97,0.74-12.58-2.96
				l-0.19,1.58c0.21,0.15,0.42,0.32,0.63,0.49c0.16,0.13,0.33,0.23,0.49,0.35c3,2.23,6.51,2.47,10.04,1.97
				c0.51-0.07,1.02-0.16,1.52-0.26c3.99-0.79,7.17,0.36,9.54,3.72c2.07,2.94,5.21,3.64,8.56,3.61c0.41,0,0.81,0.02,1.21,0.04l0,0
				c0,0,0,0,0,0l0,0c0,0,0,0,0,0c0.45,0.02,0.89,0.06,1.32,0.11c0.07,0.01,0.14,0.02,0.21,0.02c0.39,0.05,0.77,0.12,1.15,0.19
				c0.12,0.02,0.24,0.05,0.35,0.07c0.34,0.08,0.68,0.16,1.01,0.26c0.15,0.04,0.3,0.09,0.45,0.14c0.3,0.1,0.6,0.2,0.89,0.32
				c0.18,0.07,0.36,0.15,0.54,0.24c0.26,0.11,0.51,0.23,0.76,0.36c0.21,0.11,0.42,0.24,0.63,0.36c0.21,0.13,0.43,0.25,0.63,0.38
				c0.25,0.17,0.5,0.36,0.75,0.55c0.16,0.12,0.32,0.23,0.47,0.36c0.4,0.33,0.79,0.69,1.16,1.07c1.19,1.22,2.21,2.61,3.22,3.99
				c1.59,2.16,3.56,3.52,6.26,4.14c3.19,0.73,6.36,1.72,9.36,3.02c3.49,1.51,4.12,4.95,4.89,8.3c0.09,0.4,0.2,0.82,0.31,1.23
				c0.09,0.36,0.2,0.71,0.31,1.07c0.06,0.2,0.12,0.4,0.19,0.59c0.09,0.28,0.19,0.55,0.3,0.82c0.11,0.29,0.24,0.58,0.37,0.86
				c0.09,0.19,0.17,0.39,0.27,0.58c0.25,0.47,0.51,0.93,0.82,1.35c1.43,1.96,3.68,3.33,5.55,4.97c0.42,0.37,0.8,0.75,1.16,1.14
				c0.12,0.13,0.23,0.27,0.34,0.41c0.22,0.26,0.44,0.53,0.64,0.81c0.12,0.17,0.23,0.35,0.34,0.52c0.16,0.25,0.32,0.51,0.46,0.77
				c0.11,0.19,0.21,0.39,0.3,0.58c0.12,0.25,0.24,0.51,0.34,0.77c0.09,0.21,0.17,0.42,0.25,0.63c0.09,0.26,0.17,0.52,0.25,0.78
				c0.06,0.22,0.13,0.44,0.19,0.67c0.06,0.27,0.11,0.54,0.16,0.82c0.04,0.23,0.09,0.45,0.13,0.68c0.07,0.47,0.12,0.95,0.15,1.44
				c0.04,0.59,0.05,1.18,0.03,1.78c-0.07,2.71,0.62,4.98,2.47,6.53l1.27-0.54C254.61,100.49,253.91,98.4,254.25,95.06z"/>
		</g>
		<g>
			<path class="st2" d="M205.97,50.45c0.06,0.4,0.11,0.8,0.15,1.19c0.01,0.15,0.02,0.3,0.03,0.46c0.02,0.26,0.04,0.52,0.05,0.77
				c0.04,1.23-0.04,2.46-0.29,3.7c4.27,2.78,9.27,4.55,13.65,7.17c0.63,0.38,1.24,0.77,1.83,1.18c1.43,1,2.76,2.13,3.94,3.46
				c1.18,1.34,2.21,2.88,3.03,4.7c0,0,0,0,0,0c0,0,0,0,0,0c3.73,0.31,7.47,0.61,11.2,0.91c0.16-0.03,0.31-0.05,0.47-0.08
				c-0.11-0.41-0.22-0.82-0.31-1.23c-0.77-3.35-1.39-6.79-4.89-8.3c-3-1.3-6.17-2.29-9.36-3.02c-2.7-0.62-4.67-1.98-6.26-4.14
				c-1.01-1.38-2.03-2.77-3.22-3.99c-0.38-0.39-0.76-0.74-1.16-1.07c-0.15-0.13-0.31-0.24-0.47-0.36c-0.25-0.19-0.49-0.38-0.75-0.55
				c-0.21-0.14-0.42-0.26-0.63-0.38c-0.21-0.12-0.42-0.25-0.63-0.36c-0.25-0.13-0.51-0.25-0.76-0.36c-0.18-0.08-0.36-0.16-0.54-0.24
				c-0.29-0.12-0.59-0.22-0.89-0.32c-0.15-0.05-0.3-0.1-0.45-0.14c-0.33-0.1-0.67-0.18-1.01-0.26c-0.12-0.03-0.23-0.05-0.35-0.07
				c-0.38-0.07-0.76-0.14-1.15-0.19c-0.07-0.01-0.14-0.02-0.21-0.02c-0.44-0.05-0.88-0.09-1.32-0.11c0,0,0,0,0,0l0,0
				c0.12,0.54,0.22,1.08,0.3,1.61C205.97,50.42,205.97,50.44,205.97,50.45z"/>
			<path class="st3" d="M252.59,95.94c0.02-0.6,0-1.19-0.03-1.78c-10.73,2.07-9.79-11.89-12.99-20.17c-3.73-0.3-7.47-0.61-11.2-0.91
				c0,0,0,0,0,0c-0.08,2.23-0.46,4.16-1.17,5.76c-1.25,2.82-3.54,4.63-7.04,5.24c-0.88,0.15-1.82,0.24-2.85,0.24
				c-0.23,2.92-1.11,4.98-2.47,6.54c-0.54,0.62-1.18,1.16-1.87,1.65c0,0.03,0,0.05,0,0.08c-0.2,6.18-1.73,11.93-3.19,16.75
				c-0.99,3.24-1.98,6.73-2.52,10.29c-0.17,1.09-0.18,2.13-0.06,3.14l17.94-7.61c1.61-1.72,4.01-2.98,7.62-3.47
				c0.26-0.04,0.52-0.06,0.78-0.09l21.53-9.13C253.2,100.92,252.51,98.65,252.59,95.94z"/>
			<path class="st3" d="M170.56,78.57c9.34-4.9,19.92-7.36,30.01-10.79c-0.01-2.08-0.03-4.15-0.05-6.23
				c-1.97-0.29-3.94-0.56-5.91-0.87c-0.77-0.12-1.54-0.25-2.31-0.38c-7.37-1.28-14.44-3.34-20.17-8.97l-3.48,28.31
				c0.61-0.35,1.22-0.71,1.85-1.04C170.53,78.59,170.55,78.58,170.56,78.57z"/>
			<path class="st4" d="M178.89,90.34c4.89-0.37,9.54-2.05,14.04-3.68c1.31-0.47,2.62-0.95,3.94-1.39c2.47-0.83,5.26-1.28,8.07-1.28
				c0.01,0,0.02,0,0.02,0c2.32,0,4.31,0.79,5.77,2.29c1.51,1.55,2.3,3.77,2.24,6.25c0.69-0.49,1.33-1.02,1.87-1.64
				c1.36-1.56,2.24-3.62,2.47-6.54c0,0,0,0,0,0c-1.85-1.85-3.7-3.69-5.56-5.53c-4.18-1.84-5.36-5.38-5.97-9.24
				c-0.09-0.55-0.16-1.11-0.23-1.67c-1.66,0.03-3.32-0.01-4.97-0.12c-10.09,3.43-20.67,5.89-30.01,10.79
				c-0.02,0.01-0.04,0.02-0.06,0.03c-0.63,0.33-1.24,0.69-1.85,1.04l-1.09,8.89C171.29,90.56,175.34,90.61,178.89,90.34z"/>
			<path class="st5" d="M192.3,60.3c0.77,0.13,1.54,0.26,2.31,0.38c1.96,0.31,3.94,0.58,5.91,0.87c1.79-1.66,3.59-3.32,5.38-4.98
				c0,0,0,0,0,0c0.25-1.24,0.33-2.47,0.29-3.7c-0.01-0.26-0.03-0.52-0.05-0.77c-0.01-0.15-0.01-0.3-0.03-0.46
				c-0.04-0.4-0.09-0.8-0.15-1.19c0-0.01,0-0.02,0-0.03c-0.08-0.54-0.19-1.08-0.3-1.61l0,0c-0.4-0.02-0.8-0.04-1.21-0.04
				c-3.34,0.02-6.49-0.68-8.56-3.61c-2.37-3.37-5.55-4.51-9.54-3.72c-0.51,0.1-1.02,0.19-1.52,0.26c-3.53,0.51-7.04,0.26-10.04-1.97
				c-0.61,1-1.14,2.04-1.61,3.12l-1.04,8.49C177.87,56.95,184.94,59.01,192.3,60.3z"/>
			<path class="st6" d="M225.33,68.39c-1.18-1.34-2.51-2.46-3.94-3.46c-0.6-0.42-1.21-0.81-1.83-1.18
				c-4.38-2.63-9.38-4.4-13.65-7.17c-1.79,1.66-3.59,3.32-5.38,4.98c0.02,2.08,0.03,4.15,0.05,6.23c1.65,0.1,3.31,0.14,4.97,0.12
				c4.85,2.06,5.84,6.31,6.2,10.91c1.86,1.84,3.71,3.69,5.56,5.53c0,0,0,0,0,0c1.03,0,1.97-0.09,2.85-0.24
				c3.5-0.61,5.79-2.42,7.04-5.24c0.71-1.6,1.09-3.54,1.17-5.76C227.54,71.26,226.51,69.72,225.33,68.39z"/>
			<path class="st6" d="M239.56,74c3.2,8.27,2.26,22.24,12.99,20.17c0,0,0,0,0-0.01c-0.03-0.49-0.08-0.96-0.15-1.44
				c-0.03-0.23-0.08-0.45-0.13-0.68c-0.05-0.27-0.1-0.55-0.16-0.82c-0.05-0.22-0.12-0.44-0.19-0.67c-0.08-0.26-0.16-0.52-0.25-0.78
				c-0.08-0.21-0.16-0.42-0.25-0.63c-0.11-0.26-0.22-0.51-0.34-0.77c-0.1-0.2-0.2-0.39-0.3-0.58c-0.14-0.26-0.3-0.51-0.46-0.77
				c-0.11-0.17-0.22-0.35-0.34-0.52c-0.2-0.28-0.42-0.54-0.64-0.81c-0.11-0.14-0.22-0.28-0.34-0.41c-0.36-0.39-0.74-0.78-1.16-1.14
				c-1.87-1.64-4.13-3-5.55-4.97c-0.31-0.42-0.57-0.88-0.82-1.35c-0.1-0.19-0.18-0.38-0.27-0.58c-0.13-0.28-0.26-0.57-0.37-0.86
				c-0.1-0.27-0.2-0.54-0.3-0.82c-0.07-0.2-0.13-0.39-0.19-0.59c-0.11-0.36-0.22-0.71-0.31-1.07
				C239.88,73.95,239.72,73.97,239.56,74z"/>
			<path class="st7" d="M174.79,39.72c-0.16-0.12-0.33-0.22-0.49-0.35c-0.21-0.18-0.42-0.34-0.63-0.49l-0.49,3.96
				C173.65,41.76,174.19,40.72,174.79,39.72z"/>
			<path class="st3" d="M205.55,67.89c0.07,0.56,0.15,1.12,0.23,1.67c0.61,3.86,1.79,7.4,5.97,9.24
				C211.38,74.2,210.39,69.95,205.55,67.89z"/>
			<path class="st8" d="M225.13,115.17l8.4-3.56c-0.26,0.03-0.52,0.05-0.78,0.09C229.14,112.19,226.74,113.45,225.13,115.17z"/>
		</g>
		<radialGradient id="SVGID_1_" cx="160.1089" cy="139.8217" r="58.9324" gradientUnits="userSpaceOnUse">
			<stop  offset="0.0969" style="stop-color:#C8A069"/>
			<stop  offset="0.6471" style="stop-color:#BF8F4F"/>
			<stop  offset="1" style="stop-color:#A96A36"/>
		</radialGradient>
		<path class="st9" d="M204.88,86.41c-1.46-0.22-3.27-0.01-5.54,0.63c-2.09,0.6-4.19,1.31-6.22,2c-1.79,0.61-3.61,1.22-5.45,1.77
			c-0.26,0.08-0.52,0.15-0.78,0.23c-0.26,0.08-0.53,0.15-0.79,0.22c-0.28,0.08-0.56,0.15-0.85,0.22c-0.29,0.07-0.58,0.15-0.87,0.22
			c-0.3,0.07-0.61,0.14-0.92,0.2c-0.31,0.07-0.62,0.14-0.94,0.2c-0.33,0.06-0.66,0.12-0.99,0.18c-0.37,0.06-0.75,0.12-1.12,0.17
			c-0.39,0.05-0.79,0.11-1.18,0.15c0,0,0,0-0.01,0c-0.46,0.05-0.9,0.07-1.34,0.1c-0.55,0.04-1.09,0.06-1.62,0.07
			c-0.69,0.01-1.35,0-2-0.03c-2.49-0.13-4.71-0.6-6.72-1.44c-0.1-0.04-0.2-0.09-0.3-0.13l-0.01,0.09l-6.29,51.15l43.51-18.46
			l0.39-0.17c-0.02-0.09-0.03-0.19-0.04-0.28c-0.06-0.36-0.12-0.71-0.15-1.07c-0.03-0.31-0.03-0.62-0.04-0.93
			c0-0.27,0-0.55,0.01-0.82c0.01-0.26,0.02-0.52,0.04-0.79c0.02-0.25,0.05-0.49,0.08-0.74c0.03-0.24,0.05-0.48,0.09-0.71
			c0.03-0.22,0.08-0.44,0.12-0.66c0.04-0.22,0.07-0.44,0.12-0.66c0.04-0.21,0.09-0.43,0.14-0.64c0.05-0.21,0.09-0.43,0.14-0.64
			c0.01-0.02,0.01-0.05,0.02-0.08c0.04-0.18,0.1-0.35,0.15-0.53c0.05-0.2,0.11-0.39,0.16-0.59c0.05-0.2,0.11-0.39,0.16-0.59
			c0.06-0.2,0.1-0.4,0.16-0.59c0.06-0.2,0.11-0.39,0.16-0.59c0.06-0.19,0.12-0.38,0.18-0.57c0.06-0.19,0.12-0.38,0.18-0.57
			c0.06-0.19,0.12-0.38,0.18-0.57c0.06-0.18,0.12-0.37,0.18-0.56c0.04-0.13,0.08-0.26,0.12-0.38c0.02-0.06,0.04-0.12,0.06-0.17
			c0.06-0.18,0.12-0.37,0.18-0.56c0.06-0.18,0.12-0.37,0.18-0.56c0.06-0.19,0.12-0.37,0.18-0.56c0.06-0.19,0.12-0.37,0.18-0.56
			c0.06-0.19,0.11-0.37,0.17-0.56c0.06-0.19,0.1-0.38,0.15-0.57c0.05-0.19,0.1-0.38,0.15-0.57c0.05-0.19,0.1-0.37,0.15-0.56
			c0.05-0.19,0.1-0.37,0.15-0.56c0.04-0.15,0.08-0.29,0.12-0.44l0.03-0.13l0.05-0.22c0.03-0.12,0.05-0.23,0.08-0.35
			c0.04-0.19,0.09-0.38,0.13-0.57c0.77-3.39,1.49-6.86,1.43-10.23C210.31,88.49,209.12,87.06,204.88,86.41z"/>
		<path class="st0" d="M212.96,92.52L212.96,92.52c0.06-2.48-0.73-4.7-2.24-6.25c-1.46-1.5-3.45-2.29-5.77-2.29
			c-0.01,0-0.02,0-0.02,0c-2.81,0.01-5.6,0.45-8.07,1.28c-1.32,0.44-2.63,0.92-3.94,1.39c-4.5,1.63-9.15,3.31-14.04,3.68
			c-3.56,0.27-7.6,0.22-11.33-1.82l-0.09,0.72l-0.06,0.47l-0.18,1.45c0.1,0.04,0.2,0.09,0.3,0.13c2,0.84,4.22,1.31,6.72,1.44
			c0.65,0.03,1.32,0.05,2,0.03c0.53-0.01,1.07-0.03,1.62-0.07c0.44-0.03,0.88-0.05,1.34-0.1c0,0,0,0,0.01,0
			c0.4-0.04,0.79-0.1,1.18-0.15c0.38-0.05,0.75-0.11,1.12-0.17c0.33-0.06,0.66-0.11,0.99-0.18c0.31-0.06,0.63-0.13,0.94-0.2
			c0.31-0.07,0.61-0.13,0.92-0.2c0.29-0.07,0.58-0.15,0.87-0.22c0.28-0.07,0.57-0.14,0.85-0.22c0.26-0.07,0.53-0.15,0.79-0.22
			c0.26-0.07,0.52-0.15,0.78-0.23c1.85-0.55,3.66-1.17,5.45-1.77c2.03-0.69,4.13-1.41,6.22-2c2.27-0.65,4.08-0.85,5.54-0.63
			c4.25,0.65,5.43,2.08,5.51,6.65c0.06,3.38-0.66,6.85-1.43,10.23c-0.04,0.19-0.09,0.38-0.13,0.57c-0.03,0.12-0.05,0.23-0.08,0.35
			l-0.05,0.22l-0.03,0.13c-0.03,0.15-0.08,0.29-0.12,0.44c-0.05,0.19-0.1,0.37-0.15,0.56c-0.05,0.19-0.1,0.37-0.15,0.56
			c-0.05,0.19-0.1,0.38-0.15,0.57c-0.05,0.19-0.1,0.38-0.15,0.57c-0.06,0.19-0.11,0.37-0.17,0.56c-0.06,0.19-0.12,0.37-0.18,0.56
			c-0.06,0.19-0.12,0.37-0.18,0.56c-0.06,0.19-0.12,0.37-0.18,0.56c-0.06,0.18-0.12,0.37-0.18,0.56c-0.02,0.06-0.04,0.12-0.06,0.17
			c-0.04,0.13-0.08,0.26-0.12,0.38c-0.06,0.18-0.12,0.37-0.18,0.56c-0.06,0.19-0.12,0.38-0.18,0.57c-0.06,0.19-0.12,0.38-0.18,0.57
			c-0.06,0.19-0.12,0.38-0.18,0.57c-0.06,0.19-0.11,0.39-0.16,0.59c-0.06,0.2-0.11,0.39-0.16,0.59c-0.06,0.2-0.11,0.39-0.16,0.59
			c-0.05,0.2-0.11,0.39-0.16,0.59c-0.04,0.18-0.1,0.35-0.15,0.53c-0.01,0.02-0.01,0.05-0.02,0.08c-0.05,0.21-0.09,0.43-0.14,0.64
			c-0.05,0.21-0.1,0.43-0.14,0.64c-0.04,0.22-0.08,0.44-0.12,0.66c-0.04,0.22-0.08,0.44-0.12,0.66c-0.04,0.24-0.06,0.48-0.09,0.71
			c-0.03,0.25-0.06,0.49-0.08,0.74c-0.02,0.26-0.03,0.52-0.04,0.79c-0.01,0.27-0.02,0.55-0.01,0.82c0,0.31,0.01,0.62,0.04,0.93
			c0.03,0.36,0.09,0.71,0.15,1.07c0.02,0.09,0.02,0.19,0.04,0.28l1.3-0.55l0.38-0.16l0.67-0.28c-0.12-1.01-0.11-2.05,0.06-3.14
			c0.54-3.56,1.53-7.05,2.52-10.29c1.47-4.81,2.99-10.57,3.19-16.75C212.97,92.57,212.96,92.55,212.96,92.52z"/>
	</g>
	<g>
		<g>
			<path class="st10" d="M104.92,127.58c-0.91-0.23-1.79-0.48-2.65-0.77c-0.25,2.62-0.5,5.24-0.75,7.87
				C103.7,133.21,104.8,130.9,104.92,127.58z"/>
			<path class="st3" d="M77.72,145.72c3.1-1.65,6.31-3.35,9.53-4.89c1.29-0.62,2.54-1.18,3.77-1.73c-4.14-0.54-8.18-1.66-12.22-2.81
				c-1.55,2.77-3.86,5.59-7.15,8.48c0.28,1.26,0.55,2.53,0.81,3.79c0.19-0.12,0.36-0.25,0.56-0.35
				C74.59,147.38,76.15,146.55,77.72,145.72z"/>
			<path class="st8" d="M198.68,162.18c7.34-4.43,17.39-7.66,26.73-10.78c1.82,0.04,3.64,0.08,5.45,0.12
				c2.68,7.33,5.59,12.91,9.48,15.58c0.12-0.24,0.22-0.47,0.32-0.71c0.03-0.07,0.06-0.14,0.09-0.22c0.08-0.21,0.15-0.42,0.22-0.63
				c0.03-0.1,0.07-0.21,0.1-0.31c0.05-0.19,0.1-0.38,0.14-0.58c0.03-0.13,0.05-0.25,0.07-0.38c0.03-0.18,0.06-0.36,0.08-0.54
				c0.02-0.15,0.03-0.29,0.03-0.44c0.01-0.17,0.02-0.33,0.02-0.5c0-0.17-0.01-0.34-0.02-0.52c-0.01-0.15-0.02-0.3-0.03-0.46
				c-0.02-0.21-0.06-0.42-0.1-0.63c-0.02-0.12-0.04-0.25-0.07-0.37c-0.08-0.34-0.18-0.69-0.3-1.04c-1.35-3.97-2.8-7.98-1.28-12.36
				c0.49-1.41,0.23-3.12,0.1-4.68c-0.06-0.68-0.16-1.36-0.27-2.04c-0.14-0.81-0.29-1.63-0.43-2.44c0,0,0,0,0,0
				c-8.73-0.66-17.48-1.17-26.69,0.01l-8.4,3.56C199.06,147.02,201.27,156.42,198.68,162.18z"/>
			<path class="st4" d="M77.91,112.57c1.68-1.03,3.65-1.62,6.18-1.39c-0.37-3.9-1.06-7.81-1.71-11.72
				c-0.45-0.34-0.91-0.68-1.36-1.02c-2.42-0.45-4.35-1.27-5.93-2.33l0,0c-0.92,1.2-1.92,2.3-3.03,3.28c0,0,0,0,0,0
				C73.76,103.84,76.03,108.21,77.91,112.57z"/>
			<path class="st11" d="M99.33,135.77c0.83-0.29,1.55-0.66,2.19-1.1c0.25-2.62,0.5-5.24,0.75-7.87c0,0-0.01,0-0.01,0
				c-0.45-10.57-11.37-8.98-16.71-13.88c-0.55-0.51-1.04-1.08-1.46-1.75c-2.53-0.23-4.5,0.36-6.18,1.39
				c3.36,7.78,5.46,15.53,0.89,23.71c4.04,1.15,8.08,2.28,12.22,2.81C93.88,137.83,96.63,136.72,99.33,135.77z"/>
			<path class="st3" d="M239,138.27c-0.04-0.25-0.09-0.5-0.13-0.75c-0.43-2.81-0.23-5.8-3.52-7.38c-0.31-0.15-0.59-0.31-0.85-0.49
				c-0.24-0.16-0.46-0.33-0.67-0.5l0,0l-21.53,9.13C221.53,137.1,230.27,137.61,239,138.27z"/>
			<path class="st3" d="M191.56,158.06c2.06,1.57,4.11,3.15,6.17,4.72c0.31-0.2,0.63-0.4,0.95-0.6c2.6-5.76,0.38-15.16,5.23-20.34
				l-17.94,7.61C186.36,152.67,188.2,155.51,191.56,158.06z"/>
			<path class="st3" d="M141.79,73.93c-1.8-1.93-2.99-4.47-4.18-7c0,0,0,0,0,0c-0.53-0.1-1.06-0.24-1.6-0.41
				c-0.03-0.01-0.07-0.02-0.1-0.03c-0.54-0.17-1.08-0.36-1.63-0.58c-2.22-0.9-4.38-0.66-6.44,0.64c-1.7,1.08-3.48,2.05-5.19,3.11
				c-1.4,0.87-2.76,1.01-4.32,0.39c-0.26-0.1-0.53-0.19-0.8-0.27c-0.19,0.97-0.47,1.92-0.87,2.84c-0.14,0.33-0.31,0.66-0.48,0.99
				c-0.36,0.65-0.78,1.29-1.29,1.91c-0.25,0.31-0.53,0.61-0.82,0.91c-0.39,0.4-0.82,0.79-1.3,1.17c0,0,0,0,0,0
				c2.04,6.3,2.68,12.38,2.34,18.31c0.93,0.01,1.96,0.26,3.15,0.8c4,1.8,7.11,3.49,9.77,5.3c4.25,2.9,8.45,6.02,12.53,9.06
				c1.07-0.89,2.15-1.75,3.28-2.52c1.17-0.8,2.37-1.54,3.59-2.24l3.48-28.31c-0.25-0.24-0.5-0.48-0.74-0.74
				C146.23,77.29,143.68,75.94,141.79,73.93z"/>
			<path class="st4" d="M144.67,114.14c0.55,0.41,1.11,0.76,1.67,1.07l1.09-8.89c-1.22,0.7-2.43,1.43-3.59,2.24
				c-1.13,0.78-2.21,1.63-3.28,2.52c0.34,0.25,0.68,0.5,1.01,0.75C142.61,112.6,143.64,113.37,144.67,114.14z"/>
			<path class="st5" d="M105.5,75.9c0.25,7.05-4.5,16.64,8.79,17.05l0.13,0.13c-0.12,0.95-0.16,1.93-0.17,2.93
				c0.28-0.05,0.57-0.09,0.87-0.08c0.34-5.93-0.3-12.01-2.34-18.31c0,0,0,0,0,0c0,0,0,0,0,0C109.99,77.43,107.5,76.94,105.5,75.9z"
				/>
			<path class="st5" d="M85.55,112.93c5.34,4.9,16.25,3.3,16.71,13.88c0,0,0.01,0,0.01,0c0.86,0.29,1.75,0.54,2.65,0.77
				c0-0.13,0.02-0.25,0.03-0.39c0.05-3.91,0.4-7.94,1.06-12.27c-0.75,0.2-1.54,0.37-2.43,0.5c-7.07-5.32-14.14-10.64-21.21-15.96
				c0.65,3.91,1.34,7.83,1.71,11.72C84.5,111.84,85,112.42,85.55,112.93z"/>
			<path class="st5" d="M150.92,78.01l1.04-8.48c-1.02,2.34-1.68,4.89-1.78,7.75C150.42,77.53,150.67,77.76,150.92,78.01z"/>
			<path class="st11" d="M105.5,75.9c2,1.04,4.5,1.54,7.28,1.71c0,0,0,0,0,0c0.47-0.38,0.9-0.77,1.3-1.17
				c0.29-0.3,0.57-0.6,0.82-0.91c0.51-0.62,0.93-1.25,1.29-1.91c0.18-0.33,0.34-0.66,0.48-0.99c0.4-0.92,0.68-1.87,0.87-2.84
				c0,0,0,0,0,0c-0.51-0.15-1.04-0.25-1.57-0.32c-0.04-0.01-0.09-0.01-0.13-0.02c-0.53-0.06-1.06-0.09-1.6-0.07
				c-0.03,0-0.06,0-0.09,0c-1.11,0.04-2.23,0.22-3.31,0.55c-0.01,0-0.02,0.01-0.03,0.01c-0.54,0.16-1.07,0.36-1.58,0.59
				c-0.01,0.01-0.03,0.01-0.04,0.02c-1.56,0.7-2.97,1.69-4.05,2.89l0,0C105.36,74.2,105.47,75.03,105.5,75.9z"/>
			<path class="st6" d="M64.31,142.1c2.1,1.06,4.53,1.95,7.34,2.66c3.3-2.89,5.6-5.71,7.15-8.48c4.57-8.18,2.47-15.93-0.89-23.71
				c0,0,0,0,0,0c-1.88-4.36-4.15-8.73-5.85-13.18c0,0,0,0,0,0c-0.34,0.3-0.69,0.58-1.06,0.85c-0.06,0.05-0.13,0.09-0.19,0.14
				c-0.32,0.23-0.64,0.45-0.98,0.66c-0.17,0.11-0.36,0.2-0.54,0.3c-0.26,0.14-0.51,0.29-0.78,0.42c-0.48,0.23-0.98,0.44-1.51,0.62
				c-1.88,0.65-3.19,2.07-3.6,4.16c-0.37,1.87-0.82,3.73-1.24,5.6c-0.58,2.56-1.9,4.46-4.24,5.89c-3.51,2.14-5.02,5.77-3.91,9.57
				c0.12,0.41,0.21,0.8,0.27,1.19c0.05,0.33,0.08,0.65,0.09,0.97c0,0.04,0.01,0.09,0.01,0.13c0.01,0.71-0.08,1.38-0.27,2.02
				c0,0,0,0,0,0C56.09,136.03,59.25,139.55,64.31,142.1z"/>
			<path class="st12" d="M64.15,190.2c7.59-5.61,10.98-14.94,28.8-10.74c-0.16-0.18-0.32-0.35-0.49-0.53
				c-1.99-2.14-4.48-3.59-6.89-5c-2.01-1.17-4.08-2.38-5.87-3.99c-0.79-0.71-1.6-1.39-2.41-2.07c-3.14-2.64-6.38-5.36-8.01-9.55
				c-0.1-0.25-0.14-0.49-0.22-0.73c-1.11-3.66,0.17-7.08,3.38-9.04c-0.26-1.26-0.53-2.53-0.81-3.79c-2.8-0.7-5.23-1.59-7.34-2.66
				c-5.06-2.55-8.22-6.07-10.22-10.19v0c-0.3,0.98-0.83,1.88-1.57,2.74c-0.02,0.02-0.03,0.04-0.04,0.05
				c-0.26,0.29-0.53,0.58-0.84,0.86c-2.98,2.8-3.11,4.71-1.86,8.53c0.98,2.98,1.54,6.16-1.3,8.8c-0.54,0.5-0.7,1.74-0.57,2.57
				c0.08,0.53,0.17,1.06,0.28,1.59c0,0.01,0.01,0.03,0.01,0.04c0.11,0.53,0.24,1.05,0.38,1.57c2.83,0.17,5.06,1.74,5.87,6.68
				c1,6.12-1.02,10.07-4.55,12.69c0.12,0.46,0.2,0.92,0.25,1.39c0,0.02,0.01,0.04,0.01,0.06c0.05,0.47,0.07,0.94,0.06,1.42
				c0,0,0,0,0,0.01c-0.01,0.43-0.05,0.87-0.12,1.31c-0.01,0.1-0.03,0.2-0.04,0.3c-0.07,0.45-0.16,0.9-0.28,1.36
				c-0.46,1.78-0.85,3.79-0.48,5.53c0.93,4.36,3.95,7.43,7.53,9.8c2.49,1.65,3.27,3.76,2.62,6.43c-0.11,0.43-0.17,0.83-0.21,1.22
				c-0.01,0.12-0.02,0.23-0.03,0.35c-0.02,0.31-0.02,0.6-0.01,0.89c0.01,0.14,0.02,0.28,0.04,0.42c0.03,0.24,0.07,0.48,0.13,0.71
				c0.04,0.17,0.09,0.33,0.14,0.5c0.04,0.12,0.09,0.24,0.14,0.36c0.16,0.39,0.34,0.76,0.57,1.11c0.01,0.01,0.01,0.02,0.02,0.03
				c0.14,0.22,0.3,0.43,0.46,0.63c0,0,0,0,0,0c0.67-0.21,1.33-0.41,2-0.62c1.86,0.33,3.44,0.75,4.78,1.26c0-0.5,0-1.01,0-1.51
				c0-2.34,0-4.68,0-7.02c-2.55-0.85-4.64-2.13-5.5-4.53c-0.69-1.91-0.62-4.52,0.64-8.23C63.15,190.91,63.66,190.56,64.15,190.2z"/>
			<path class="st5" d="M54.46,165.35c-0.81-4.94-3.04-6.5-5.87-6.68c0.08,0.27,0.16,0.53,0.25,0.8c0.11,0.32,0.23,0.65,0.37,0.96
				c1.42,3.14,1.31,6.2-0.18,9.17c-1.09,2.16-1,4.17,0.05,6.23c0.18,0.36,0.34,0.73,0.48,1.09c0.01,0.02,0.01,0.03,0.02,0.05
				c0.13,0.36,0.24,0.71,0.33,1.07C53.44,175.42,55.46,171.47,54.46,165.35z"/>
			<path class="st3" d="M81.02,98.43c0.45,0.34,0.91,0.68,1.36,1.02c0,0,0,0,0,0c7.07,5.32,14.13,10.64,21.21,15.96
				c0.89-0.13,1.68-0.3,2.43-0.5c0.48-3.14,1.11-6.43,1.93-9.97c0.47-2.01,1.34-4.05,2.53-5.89c1.17-1.8,2.36-2.79,3.78-3.06
				c0.01-1,0.05-1.98,0.17-2.93l-0.13-0.13c-13.29-0.41-8.55-10-8.79-17.05c-0.03-0.87-0.14-1.69-0.36-2.46c0,0,0,0,0,0
				c-0.3,0.33-0.58,0.68-0.83,1.04c-1.24,1.85-3.92,3-6.18,3.84c-2.3,0.86-4.94,0.76-7.34,1.41c-2.69,0.72-4.68,2.56-6.41,4.74
				c-2.44,3.07-5.3,5.84-7.47,9.09c-0.59,0.88-1.19,1.74-1.82,2.55c0,0,0,0,0,0C76.67,97.16,78.6,97.98,81.02,98.43z"/>
			<path class="st12" d="M139.88,233.64c-9.48,1.12-19.05,2.06-27.71,5.03c-0.12,0.04-0.24,0.09-0.36,0.13
				c-1.78,0.62-3.52,1.34-5.21,2.15c-1.06,0.51-2.1,1.07-3.12,1.66c-1.2,0.7-2.37,1.46-3.5,2.3c-0.59,0.44-1.17,0.9-1.74,1.37
				c0.66,0.32,1.31,0.68,1.94,1.09c0,0,0.01,0,0.01,0.01c0.62,0.41,1.23,0.85,1.82,1.32c1.38,1.11,2.57,2.9,4.11,3.26
				c3.5,0.83,7.2,1.51,10.73,1.23c4.05-0.33,7.4,0.49,10.52,2.93c0.43,0.34,0.87,0.64,1.31,0.94c0.14,0.09,0.28,0.18,0.42,0.27
				c0.34,0.21,0.69,0.41,1.04,0.6c0.25,0.13,0.51,0.26,0.77,0.37c0.24,0.11,0.49,0.22,0.73,0.32c0.27,0.1,0.54,0.2,0.81,0.29
				c0.12,0.04,0.25,0.07,0.37,0.11c0.59,0.17,1.18,0.3,1.79,0.38c0.06,0.01,0.12,0.02,0.18,0.03c0.36,0.04,0.71,0.07,1.08,0.08
				C133.09,251.75,135.05,242.18,139.88,233.64z"/>
			<path class="st3" d="M80.26,233.48c1.33-1.75,3.69-3.52,7.48-5.31c2.7-1.28,5.38-3.12,8.06-5.15c-0.85-0.75-1.53-1.54-1.96-2.32
				c-0.33-0.6-0.5-1.27-0.6-1.98c-3.11-2.94-7.3-4.96-10.62-7.72c-1.84-5.28-9.57-5.15-15.13-7.01c0,2.34,0,4.68,0,7.02
				c0,0.5,0,1.01,0,1.51c0,1.77,0,3.54,0,5.31c0.13,0.16,0.25,0.33,0.36,0.5c0.01,0.01,0.01,0.02,0.02,0.03
				c0.11,0.16,0.21,0.33,0.3,0.51c0.01,0.02,0.02,0.05,0.04,0.07c0.08,0.16,0.16,0.33,0.23,0.5c0.02,0.04,0.03,0.08,0.05,0.13
				c0.06,0.16,0.12,0.32,0.16,0.48c0.02,0.07,0.03,0.14,0.05,0.2c0.04,0.15,0.07,0.3,0.1,0.45c0.02,0.1,0.02,0.2,0.03,0.29
				c0.02,0.14,0.03,0.27,0.04,0.41c0.01,0.14,0,0.29,0,0.43c0,0.11,0,0.21,0,0.33c-0.02,0.26-0.05,0.53-0.09,0.81
				c-0.56,2.95,0.63,5.26,2.96,6.86c2.39,1.64,5.09,2.83,7.48,4.47c0.13,0.09,0.25,0.18,0.37,0.27
				C79.77,234.21,79.99,233.84,80.26,233.48z"/>
			<path class="st3" d="M139.35,220.19c-0.29-0.01-0.57-0.02-0.85-0.01c0.53,0.69,1.07,1.42,1.61,2.19c0.26-0.24,0.5-0.49,0.75-0.74
				C140.4,221.15,139.89,220.67,139.35,220.19z"/>
			<path class="st6" d="M207.09,223.7c-0.01-0.35-0.02-0.69-0.03-1.04c-0.04,0-0.08,0-0.12,0c-22.01,0.72-22.5-13.11-22.37-27.35
				l-1.1,0.25c-4.59,1.07-6.33,3.17-7.46,8.98c-1.32,6.78-2.93,13.62-4.49,20.24c-0.56,2.39-1.13,4.78-1.68,7.17
				c-0.59,2.56-2.76,3.22-4.58,3.5c-0.7,0.11-1.4,0.16-2.09,0.16c-2.9,0-5.83-0.95-9.07-2.92c-4.78-2.91-9.05-6.45-12.69-10.51
				c-0.17-0.19-0.37-0.37-0.55-0.56c-0.25,0.25-0.49,0.49-0.75,0.74c-0.08,3.76-0.15,7.51-0.23,11.27
				c-4.83,8.54-6.79,18.11-4.03,25.86c0.62,0.02,1.25-0.02,1.89-0.1c0.25-0.03,0.5-0.06,0.76-0.11c0.21-0.04,0.43-0.09,0.64-0.14
				c0.51-0.12,1.03-0.26,1.55-0.46c1.05-0.38,2.09-0.81,3.13-1.22c2.71-1.07,5.47-2.26,8.41-1.19c4.85,1.78,9,0.43,12.96-2.42
				c3.66-2.64,7.64-4.31,12.23-2.97c3.15,0.93,5.43-0.35,7.36-2.52c3.88-4.37,8.2-7.77,14.44-7.63c1.74,0.04,2.84-1.06,3.65-2.37
				c0.83-1.34,1.6-2.76,2.11-4.24c0.14-0.4,0.3-0.78,0.48-1.14c0.1-0.2,0.21-0.38,0.32-0.56c0.08-0.14,0.16-0.28,0.25-0.41
				c0.16-0.24,0.32-0.46,0.5-0.68c0.04-0.05,0.08-0.1,0.12-0.15c0.21-0.25,0.42-0.48,0.65-0.7c0,0,0,0,0,0
				C207.23,228.23,207.16,225.96,207.09,223.7z"/>
			<path class="st8" d="M99.97,244.91c1.14-0.84,2.31-1.6,3.5-2.3c1.02-0.6,2.06-1.15,3.12-1.66c1.69-0.82,3.43-1.53,5.21-2.15
				c0.12-0.04,0.24-0.09,0.36-0.13c8.66-2.97,18.23-3.91,27.71-5.03c0.08-3.76,0.15-7.51,0.23-11.27c-0.54-0.77-1.08-1.49-1.61-2.19
				c-5.32,0.19-9.7,2.82-12.91,8.43c-1.11,1.22-2.28,2.39-3.51,3.48c-7.43-6.06-16.45-1.48-24.46-3.62c-0.03-1.8-0.36-3.33-0.89-4.7
				c-0.33-0.24-0.63-0.49-0.93-0.75c-2.68,2.03-5.36,3.86-8.06,5.15c-3.78,1.79-6.15,3.56-7.48,5.31c-0.28,0.37-0.5,0.73-0.69,1.09
				c0,0,0,0,0,0c0.37,0.26,0.73,0.53,1.09,0.82c0.04,0.03,0.08,0.07,0.12,0.1c0.32,0.26,0.63,0.52,0.93,0.79
				c0.13,0.12,0.25,0.24,0.37,0.36c0.21,0.21,0.43,0.41,0.63,0.62c0.33,0.35,0.64,0.71,0.92,1.08c2.48,3.24,4.72,6.48,9.44,6.62
				c0.45,0.01,0.89,0.05,1.32,0.12c0.08,0.01,0.16,0.03,0.24,0.05c0.36,0.06,0.71,0.13,1.06,0.22c0.06,0.01,0.11,0.03,0.17,0.05
				c0.38,0.1,0.75,0.22,1.12,0.36c0.02,0.01,0.04,0.02,0.06,0.02c0.4,0.15,0.8,0.32,1.18,0.51
				C98.8,245.81,99.38,245.35,99.97,244.91z"/>
			<path class="st7" d="M207.06,222.65c0.01,0.35,0.02,0.69,0.03,1.04c0.07,2.27,0.14,4.53,0.2,6.8c0,0,0,0,0,0
				c0.33-0.32,0.68-0.61,1.05-0.87c0.02-0.01,0.03-0.02,0.05-0.03c0.35-0.25,0.71-0.47,1.09-0.68c0.04-0.02,0.09-0.05,0.13-0.07
				c0.35-0.18,0.72-0.35,1.09-0.51c0.07-0.03,0.14-0.06,0.21-0.09c0.44-0.17,0.88-0.32,1.34-0.46c0.43-0.12,0.82-0.25,1.18-0.38
				c0.14-0.05,0.26-0.11,0.39-0.16c0.21-0.09,0.43-0.17,0.62-0.27c0.15-0.07,0.28-0.15,0.41-0.22c0.15-0.08,0.3-0.17,0.43-0.26
				c0.13-0.09,0.26-0.19,0.38-0.28c0.11-0.09,0.22-0.18,0.32-0.28c0.12-0.11,0.23-0.23,0.33-0.35c0.08-0.1,0.16-0.21,0.24-0.32
				c0.1-0.14,0.19-0.28,0.28-0.43c0.06-0.11,0.12-0.23,0.17-0.35c0.08-0.17,0.16-0.34,0.23-0.53c0.04-0.11,0.08-0.24,0.11-0.36
				c0.07-0.22,0.14-0.43,0.2-0.68c0,0,0,0,0,0C214.06,222.82,210.56,222.74,207.06,222.65z"/>
			<path class="st13" d="M225.86,205.22c-1.06-4.47-3.78-7.82-7.84-10.26c-4.12-2.48-9.63-4.02-16.22-4.83
				c-0.07-0.05-0.14-0.1-0.21-0.15c-1.79,0.91-3.65,1.63-5.46,2.26c-3.49,1.22-7.16,2.06-10.71,2.87l-0.85,0.2
				c-0.13,14.24,0.36,28.07,22.37,27.35c0.04,0,0.08,0,0.12,0c3.5,0.08,7,0.17,10.5,0.25c0.08-0.36,0.16-0.73,0.22-1.15
				c0.21-1.42,0.18-3.01,0.83-4.21c1.72-3.15,4.13-5.8,7.46-7.33c0.1-0.05,0.19-0.1,0.29-0.15
				C226.38,208.32,226.21,206.71,225.86,205.22z"/>
			<path class="st4" d="M230.86,151.52c-1.82-0.04-3.63-0.08-5.45-0.12c-9.33,3.13-19.39,6.35-26.73,10.78
				c-0.33,0.2-0.64,0.4-0.95,0.6c1.72,1.32,3.44,2.63,5.16,3.95c3.08,2.38,5.53,5.4,7.29,8.97c0.77,1.57,0.8,3.12,0.1,5.01
				c-1.69,4.56-4.87,7.26-8.41,9.12c0.36,0.19,0.39,0.29-0.06,0.29c6.59,0.81,12.1,2.35,16.22,4.83c4.06,2.44,6.77,5.79,7.84,10.26
				c0.35,1.49,0.53,3.1,0.5,4.85c0.43-0.21,0.83-0.43,1.2-0.67c0,0,0,0,0,0c0.37-0.23,0.71-0.48,1.03-0.75
				c0.01-0.01,0.01-0.01,0.02-0.02c0.31-0.26,0.59-0.53,0.84-0.82c0.02-0.02,0.03-0.04,0.05-0.07c0.24-0.28,0.46-0.57,0.65-0.88
				c0.03-0.05,0.05-0.1,0.08-0.15c0.17-0.29,0.33-0.59,0.46-0.91c0.04-0.1,0.06-0.2,0.1-0.3c0.1-0.28,0.2-0.57,0.27-0.88
				c0.04-0.19,0.06-0.39,0.09-0.59c0.04-0.24,0.09-0.47,0.11-0.73c0.04-0.47,0.05-0.96,0.03-1.47c-0.18-5.29-1.1-11.09,5.03-14.26
				c0.29-0.15,0.51-0.42,0.78-0.6c1.65-1.08,2.09-2.62,1.74-4.49c-0.27-1.49-0.48-2.99-0.75-4.48c-0.65-3.6,0.01-6.99,1.81-10.13
				c0.15-0.27,0.29-0.54,0.42-0.8C236.45,164.43,233.54,158.86,230.86,151.52z"/>
			<path class="st2" d="M138.58,219.51c-1.5-1.23-3.23-1.78-5.27-1.65c-3.95,0.24-7.8,1.16-11.77,2.83
				c-3.4,1.42-6.92,2.71-10.32,3.96c-1.37,0.5-2.73,1-4.09,1.51c-3.26,1.22-7.48-0.24-10.39-2.4c0.53,1.37,0.86,2.9,0.89,4.7
				c8.02,2.14,17.03-2.44,24.46,3.62c1.23-1.1,2.4-2.26,3.51-3.48c3.21-5.61,7.58-8.24,12.91-8.43c0.28-0.01,0.57,0,0.85,0.01
				C139.09,219.96,138.85,219.73,138.58,219.51z"/>
			<path class="st2" d="M92.87,215.49l-0.01-0.07l0.46-1.99c0.33-1.44,0.67-2.89,1.02-4.34c0.41-1.73,0.85-3.46,1.29-5.18
				c0.96-3.76,1.95-7.65,2.63-11.51c0.94-5.38-1.9-9.23-5.3-12.94c-17.82-4.19-21.21,5.14-28.8,10.74c-0.49,0.36-1,0.71-1.53,1.04
				c-1.26,3.7-1.33,6.32-0.64,8.23c0.87,2.4,2.95,3.68,5.5,4.53c5.57,1.86,13.29,1.73,15.13,7.01c3.33,2.76,7.51,4.78,10.62,7.72
				c-0.07-0.49-0.13-0.99-0.17-1.51C93.02,216.65,92.97,216.06,92.87,215.49z"/>
			<path class="st10" d="M67.48,217.83c0-1.77,0-3.54,0-5.31c-1.34-0.51-2.92-0.94-4.78-1.26c-0.67,0.21-1.33,0.41-2,0.62
				c0,0,0,0,0,0c0.31,0.39,0.66,0.76,1.05,1.12c0.04,0.04,0.07,0.07,0.11,0.11c0.4,0.37,0.83,0.72,1.31,1.07
				c0.2,0.15,0.4,0.29,0.6,0.44C65.12,215.58,66.49,216.57,67.48,217.83z"/>
			<path class="st8" d="M201.8,190.13c6.59,0.81,12.1,2.35,16.22,4.83c0,0,0,0,0,0C213.9,192.48,208.39,190.94,201.8,190.13
				c0.46,0,0.42-0.1,0.06-0.29c-0.09,0.05-0.18,0.1-0.27,0.14C201.66,190.03,201.73,190.08,201.8,190.13z"/>
			<path class="st7" d="M151.94,65.21c-0.08-0.05-0.17-0.09-0.25-0.14c-0.1-0.06-0.2-0.11-0.3-0.16c-0.09-0.04-0.17-0.07-0.26-0.11
				c-0.1-0.04-0.2-0.08-0.3-0.12c-0.09-0.03-0.17-0.05-0.26-0.08c-0.11-0.03-0.21-0.05-0.32-0.07c-0.08-0.02-0.17-0.03-0.26-0.04
				c-0.12-0.01-0.23-0.02-0.35-0.02c-0.08,0-0.16-0.01-0.25,0c-0.14,0-0.27,0.02-0.41,0.04c-0.07,0.01-0.14,0.01-0.22,0.03
				c-0.22,0.04-0.44,0.09-0.67,0.16c-1.13,0.35-2.41,0.46-3.38,1.06c-0.38,0.24-0.77,0.43-1.15,0.6c-0.11,0.05-0.23,0.1-0.34,0.15
				c-0.3,0.12-0.6,0.22-0.89,0.31c-0.11,0.03-0.23,0.07-0.34,0.1c-0.32,0.08-0.63,0.13-0.95,0.18c-0.19,0.03-0.39,0.04-0.58,0.06
				c-0.15,0.01-0.3,0.01-0.45,0.02c-0.79,0.02-1.59-0.06-2.38-0.22c0,0,0,0,0,0c1.19,2.53,2.37,5.07,4.17,7
				c1.88,2.01,4.44,3.36,8.38,3.34c0.11-2.86,0.77-5.4,1.78-7.75l0.49-3.96c-0.01,0-0.01-0.01-0.01-0.01
				C152.27,65.43,152.1,65.31,151.94,65.21z"/>
			<path class="st14" d="M183.91,151.54c-0.11-0.36-0.21-0.72-0.29-1.08l-0.39,0.17C183.46,150.92,183.69,151.23,183.91,151.54z"/>
		</g>
		<radialGradient id="SVGID_2_" cx="139.7781" cy="165.9283" r="68.0834" gradientUnits="userSpaceOnUse">
			<stop  offset="0.0969" style="stop-color:#C8A069"/>
			<stop  offset="0.6471" style="stop-color:#BF8F4F"/>
			<stop  offset="1" style="stop-color:#A96A36"/>
		</radialGradient>
		<path class="st15" d="M207.96,176.36c-0.17-0.34-0.38-0.69-0.63-1.08c-0.2-0.3-0.42-0.61-0.66-0.95
			c-0.05-0.07-0.09-0.13-0.14-0.19c-0.18-0.24-0.38-0.48-0.57-0.72c-0.22-0.29-0.45-0.58-0.68-0.86c-0.23-0.28-0.46-0.56-0.7-0.83
			c-0.24-0.28-0.49-0.56-0.74-0.84c-0.25-0.27-0.49-0.55-0.74-0.81c-0.24-0.25-0.49-0.49-0.73-0.74c-0.26-0.26-0.5-0.52-0.77-0.77
			c-0.25-0.24-0.51-0.47-0.77-0.7c-0.25-0.23-0.51-0.46-0.77-0.69c-0.14-0.12-0.28-0.26-0.42-0.38c-0.11-0.1-0.24-0.19-0.35-0.28
			c-0.26-0.22-0.53-0.42-0.8-0.64c-0.26-0.21-0.53-0.43-0.8-0.64c-0.27-0.21-0.52-0.43-0.8-0.64c-0.28-0.21-0.55-0.42-0.83-0.62
			c-0.28-0.21-0.55-0.41-0.83-0.61c-0.28-0.2-0.55-0.41-0.83-0.61c-0.2-0.15-0.4-0.3-0.6-0.44c-0.09-0.07-0.19-0.14-0.28-0.21
			c-0.29-0.21-0.59-0.44-0.88-0.65c-0.29-0.21-0.57-0.42-0.85-0.63c-0.32-0.24-0.63-0.47-0.95-0.71c-0.33-0.25-0.64-0.51-0.97-0.76
			c-0.35-0.27-0.7-0.54-1.05-0.82c-0.14-0.11-0.28-0.21-0.41-0.32c-0.29-0.24-0.53-0.5-0.79-0.76c-1.41-1.4-2.43-3.03-3.05-4.25
			c-0.28-0.54-0.48-1.09-0.65-1.64c-0.23-0.31-0.45-0.61-0.68-0.92l-43.51,18.46l6.29-51.15l0.01-0.08
			c-0.44-0.19-0.87-0.4-1.29-0.63c-0.37-0.2-0.73-0.43-1.09-0.66c-0.17-0.11-0.35-0.21-0.52-0.32c-0.15-0.11-0.3-0.22-0.45-0.32
			c-0.28-0.2-0.56-0.4-0.84-0.6c-0.28-0.2-0.56-0.4-0.83-0.6c-0.28-0.2-0.56-0.4-0.84-0.6c-0.28-0.2-0.56-0.4-0.84-0.6
			c-0.27-0.2-0.53-0.39-0.79-0.58c-0.25-0.19-0.5-0.37-0.76-0.56c-0.25-0.19-0.51-0.38-0.76-0.56c-0.25-0.19-0.51-0.38-0.76-0.56
			c-0.25-0.19-0.51-0.38-0.76-0.56c-0.09-0.07-0.19-0.14-0.28-0.21c-2.78-2.08-5.65-4.22-8.55-6.21c-2.94-2.02-6.23-3.67-9.4-5.27
			l-0.33-0.17c-0.76-0.38-2.07-0.41-2.31-0.2c-1.73,1.65-2.83,3.14-3.36,4.57c-1.25,3.37-2.13,6.73-2.64,9.98
			c-0.05,0.31-0.09,0.63-0.13,0.95c-0.03,0.2-0.06,0.4-0.08,0.6c-0.03,0.2-0.06,0.4-0.08,0.6c-0.03,0.2-0.05,0.41-0.08,0.61
			c-0.02,0.21-0.04,0.41-0.07,0.62c-0.02,0.21-0.05,0.41-0.07,0.62c-0.02,0.21-0.05,0.41-0.07,0.62c-0.02,0.21-0.05,0.41-0.07,0.62
			c-0.02,0.2-0.04,0.41-0.06,0.61c-0.02,0.2-0.04,0.4-0.05,0.6c-0.02,0.21-0.04,0.41-0.06,0.62c-0.02,0.21-0.04,0.42-0.06,0.63
			c-0.02,0.21-0.04,0.42-0.05,0.64c-0.02,0.21-0.03,0.42-0.05,0.63c-0.02,0.21-0.03,0.42-0.05,0.63c-0.02,0.21-0.03,0.42-0.05,0.63
			c-0.01,0.07-0.01,0.14-0.02,0.21c-0.01,0.14-0.02,0.28-0.03,0.42c-0.02,0.22-0.04,0.43-0.05,0.65c-0.02,0.22-0.04,0.44-0.05,0.65
			c-0.02,0.22-0.04,0.44-0.05,0.65c-0.02,0.22-0.04,0.44-0.05,0.65c-0.02,0.2-0.03,0.4-0.05,0.6c0,0.02,0,0.04-0.01,0.05
			c-0.02,0.22-0.04,0.44-0.06,0.66c-0.02,0.23-0.05,0.46-0.08,0.69c-0.03,0.23-0.06,0.47-0.1,0.7c-0.04,0.24-0.08,0.48-0.12,0.71
			c-0.05,0.25-0.1,0.49-0.16,0.74c-0.07,0.27-0.14,0.54-0.22,0.8c-0.09,0.29-0.19,0.57-0.3,0.84c-0.13,0.33-0.28,0.65-0.44,0.97
			c-0.21,0.39-0.44,0.77-0.71,1.13c-0.84,1.13-2.01,2.1-3.68,2.78c-0.01,0.01-0.03,0.01-0.04,0.02c-0.58,0.24-1.14,0.47-1.7,0.7
			c-0.54,0.22-1.07,0.44-1.59,0.66c-0.48,0.2-0.97,0.41-1.44,0.6c-0.47,0.2-0.92,0.39-1.37,0.58c-0.45,0.19-0.89,0.38-1.32,0.57
			c-0.41,0.18-0.81,0.35-1.21,0.53c-0.19,0.08-0.39,0.17-0.58,0.25l-0.63,0.27l-1.06,0.46l-0.64,0.28c-0.15,0.07-0.31,0.14-0.46,0.2
			c-0.35,0.15-0.7,0.31-1.06,0.46c-0.34,0.15-0.68,0.3-1.02,0.45c-0.34,0.15-0.68,0.3-1.02,0.45c-0.32,0.14-0.64,0.29-0.96,0.43
			c-0.32,0.14-0.64,0.29-0.96,0.44c-0.32,0.15-0.64,0.3-0.96,0.45c-0.29,0.14-0.59,0.28-0.88,0.42c-0.3,0.15-0.61,0.29-0.91,0.44
			c-0.31,0.15-0.62,0.31-0.92,0.47c-0.3,0.15-0.6,0.3-0.89,0.46c-0.3,0.16-0.59,0.32-0.88,0.48c-0.29,0.16-0.59,0.32-0.88,0.48
			c-0.29,0.16-0.58,0.34-0.86,0.51c-0.29,0.17-0.57,0.34-0.85,0.51c-0.29,0.18-0.58,0.36-0.86,0.54c-0.28,0.18-0.55,0.36-0.82,0.55
			c-0.22,0.15-0.45,0.29-0.66,0.44c-0.05,0.04-0.1,0.08-0.15,0.12c-0.31,0.22-0.58,0.46-0.84,0.7c-0.36,0.35-0.67,0.72-0.93,1.11
			c-0.84,1.28-1.1,2.74-0.72,4.25c0.02,0.06,0.02,0.13,0.04,0.19c0.13,0.44,0.28,0.88,0.45,1.3c0.16,0.4,0.34,0.79,0.54,1.18
			c0.18,0.36,0.38,0.71,0.6,1.05c0.19,0.3,0.39,0.6,0.6,0.89c0.19,0.27,0.4,0.53,0.61,0.78c0.2,0.24,0.41,0.48,0.63,0.71
			c0.2,0.21,0.42,0.42,0.63,0.62c0.21,0.2,0.43,0.39,0.65,0.59c0.21,0.18,0.41,0.35,0.62,0.52c0.01,0.01,0.02,0.01,0.02,0.02
			c0.21,0.17,0.43,0.33,0.65,0.5c0.21,0.17,0.43,0.33,0.65,0.5c0.22,0.17,0.45,0.35,0.68,0.52c0.23,0.17,0.45,0.35,0.67,0.52
			c0.23,0.17,0.45,0.35,0.67,0.52c0.23,0.17,0.45,0.35,0.67,0.52c0.23,0.17,0.45,0.34,0.68,0.52c0.24,0.18,0.47,0.35,0.71,0.53
			c0.24,0.18,0.47,0.35,0.71,0.53c0.24,0.18,0.47,0.35,0.7,0.53c0.23,0.18,0.47,0.35,0.7,0.53c0.24,0.18,0.49,0.37,0.73,0.55
			c0.18,0.13,0.36,0.27,0.53,0.4c0.07,0.05,0.14,0.1,0.21,0.16c0.24,0.18,0.49,0.37,0.74,0.55c0.25,0.18,0.49,0.37,0.74,0.55
			c0.26,0.19,0.52,0.39,0.78,0.59c0.26,0.2,0.52,0.39,0.78,0.58c0.26,0.2,0.52,0.39,0.78,0.58c0.27,0.21,0.55,0.41,0.82,0.62
			c0.28,0.21,0.56,0.43,0.84,0.64c0.28,0.21,0.56,0.43,0.83,0.64c0.3,0.23,0.6,0.46,0.89,0.69c0.3,0.23,0.6,0.46,0.89,0.69
			c0.27,0.21,0.54,0.41,0.8,0.62c0.03,0.02,0.06,0.05,0.09,0.07c0.36,0.29,0.7,0.58,1.02,0.88c0.43,0.39,0.83,0.8,1.21,1.22
			c1.47,1.63,2.53,3.45,3.16,5.41c0.16,0.5,0.3,1.01,0.41,1.53c0.08,0.39,0.15,0.78,0.19,1.17c0.04,0.34,0.07,0.68,0.09,1.03
			c0.02,0.29,0.02,0.58,0.02,0.88c0,0.27,0,0.54-0.02,0.81c-0.01,0.26-0.02,0.52-0.05,0.79c-0.02,0.24-0.06,0.48-0.09,0.72
			c-0.03,0.23-0.06,0.47-0.1,0.7c-0.04,0.22-0.08,0.45-0.13,0.67c-0.02,0.11-0.04,0.22-0.06,0.33c-0.02,0.1-0.05,0.21-0.07,0.31
			c-0.05,0.21-0.1,0.42-0.15,0.62c-0.05,0.21-0.1,0.42-0.15,0.62c-0.05,0.21-0.1,0.42-0.15,0.62c-0.05,0.21-0.1,0.42-0.15,0.62
			c-0.05,0.21-0.1,0.41-0.15,0.62c-0.05,0.2-0.09,0.4-0.14,0.6c-0.05,0.2-0.1,0.4-0.15,0.6c-0.05,0.2-0.1,0.39-0.15,0.59
			c-0.05,0.2-0.1,0.4-0.15,0.59c-0.05,0.2-0.1,0.4-0.15,0.59s-0.1,0.4-0.15,0.59c-0.05,0.19-0.1,0.39-0.15,0.58
			c-0.05,0.19-0.1,0.39-0.15,0.58c-0.05,0.19-0.1,0.39-0.15,0.58c-0.01,0.03-0.02,0.06-0.02,0.09c-0.04,0.16-0.08,0.33-0.12,0.49
			c-0.05,0.19-0.1,0.39-0.15,0.58c-0.05,0.19-0.1,0.39-0.15,0.58c-0.05,0.19-0.1,0.39-0.15,0.58c-0.05,0.19-0.1,0.39-0.15,0.58
			c-0.05,0.19-0.09,0.37-0.14,0.56c-0.05,0.19-0.1,0.37-0.14,0.56c-0.05,0.19-0.1,0.37-0.14,0.56c-0.05,0.19-0.1,0.37-0.14,0.56
			c-0.03,0.11-0.05,0.21-0.08,0.32c-0.02,0.08-0.04,0.16-0.06,0.25c-0.05,0.19-0.09,0.38-0.14,0.57c-0.04,0.19-0.09,0.38-0.14,0.57
			c-0.04,0.19-0.09,0.37-0.13,0.56c-0.28,1.22-0.53,2.38-0.74,3.31l-0.27,1.23c0.23,4.82,2.06,7.45,6.1,8.81
			c3.77,1.26,6.95,0.01,10.72-1.76c0.74-0.35,1.47-0.67,2.19-0.99c0.21-0.09,0.41-0.19,0.62-0.28c0.22-0.1,0.44-0.18,0.65-0.28
			c0.22-0.09,0.44-0.18,0.65-0.28c0.22-0.09,0.44-0.19,0.65-0.27c0.22-0.09,0.44-0.18,0.66-0.27c0.24-0.09,0.47-0.18,0.7-0.27
			c0.24-0.09,0.48-0.18,0.71-0.27c0.24-0.09,0.48-0.19,0.71-0.27c0.25-0.09,0.49-0.17,0.74-0.26c0.25-0.09,0.5-0.17,0.75-0.26
			c0.25-0.09,0.5-0.18,0.75-0.26c0.27-0.09,0.54-0.17,0.81-0.26c0.28-0.09,0.56-0.17,0.83-0.25c0.28-0.08,0.56-0.18,0.83-0.25
			c0.29-0.08,0.58-0.16,0.88-0.24c0.3-0.08,0.6-0.16,0.89-0.24c0.3-0.08,0.61-0.16,0.91-0.23c0.35-0.08,0.7-0.15,1.04-0.23
			c0.36-0.08,0.71-0.16,1.07-0.23c0.39-0.08,0.78-0.14,1.17-0.21c0.36-0.06,0.71-0.13,1.07-0.19c0.05-0.01,0.1-0.02,0.15-0.03
			c0.25-0.04,0.51-0.09,0.77-0.14c0.15-0.03,0.3-0.05,0.45-0.08c0.5-0.1,0.99-0.17,1.46-0.19c0.06,0,0.13-0.02,0.19-0.02
			c0.51,0,0.98,0.09,1.4,0.32c0.02,0.01,0.04,0.01,0.05,0.02c0.41,0.24,0.82,0.49,1.23,0.74c0.38,0.23,0.75,0.45,1.12,0.69
			c0.33,0.21,0.65,0.43,0.97,0.64c0.3,0.2,0.61,0.4,0.9,0.62c0.28,0.2,0.54,0.42,0.8,0.62c0.25,0.2,0.52,0.39,0.76,0.59
			c0.22,0.19,0.43,0.39,0.65,0.58c0.21,0.19,0.41,0.38,0.61,0.58c0.2,0.19,0.41,0.37,0.6,0.58c0.03,0.03,0.06,0.06,0.09,0.09
			c0.15,0.16,0.29,0.3,0.44,0.46c0.18,0.19,0.35,0.37,0.53,0.55c0.18,0.18,0.35,0.37,0.53,0.55c0.19,0.19,0.38,0.37,0.57,0.55
			c0.19,0.19,0.38,0.37,0.57,0.55c0.2,0.19,0.39,0.37,0.59,0.55c0.2,0.18,0.39,0.36,0.59,0.53c0.2,0.18,0.39,0.36,0.59,0.53
			c0.21,0.18,0.43,0.35,0.64,0.53c0.21,0.18,0.43,0.36,0.64,0.53c0.23,0.18,0.46,0.36,0.69,0.53c0.23,0.18,0.46,0.36,0.7,0.53
			c0.24,0.17,0.47,0.34,0.71,0.51c0.24,0.17,0.47,0.33,0.71,0.49c1.1,0.74,2.21,1.4,3.33,1.99c2.58,1.35,5.54,2.09,7.82,2.58
			c0.9,0.2,3.12,0.44,4.09-1.49c0.72-1.42,1.58-3.28,2.02-5.24c0.01-0.05,0.03-0.09,0.04-0.14l0.1-0.45l0.13-0.6l0.13-0.6l0.13-0.6
			l0.13-0.6l0.12-0.58c0-0.01,0-0.02,0-0.02c0.04-0.2,0.09-0.41,0.13-0.61c0.04-0.21,0.09-0.41,0.13-0.62
			c0.04-0.21,0.09-0.41,0.13-0.62c0.04-0.21,0.09-0.41,0.13-0.62c0.04-0.21,0.09-0.41,0.13-0.62s0.09-0.41,0.13-0.62
			c0.04-0.21,0.09-0.41,0.13-0.62c0.04-0.21,0.09-0.42,0.14-0.64c0.04-0.21,0.09-0.43,0.13-0.64c0.04-0.21,0.09-0.43,0.13-0.64
			c0.04-0.21,0.09-0.43,0.13-0.64c0.04-0.21,0.09-0.43,0.13-0.64c0.04-0.21,0.09-0.43,0.13-0.64c0.04-0.22,0.09-0.43,0.13-0.65
			c0.04-0.22,0.09-0.44,0.14-0.66c0.04-0.22,0.09-0.44,0.14-0.67c0.04-0.22,0.08-0.44,0.12-0.66c0.04-0.22,0.08-0.44,0.13-0.67
			c0.04-0.23,0.09-0.46,0.13-0.69c0.04-0.23,0.09-0.46,0.13-0.69c0.04-0.23,0.09-0.46,0.13-0.69c0.04-0.23,0.09-0.46,0.13-0.69
			c0.04-0.24,0.09-0.48,0.14-0.72c0.04-0.24,0.08-0.48,0.13-0.72c0.04-0.24,0.08-0.47,0.12-0.71c0.04-0.24,0.08-0.47,0.12-0.71
			c0.04-0.25,0.08-0.5,0.12-0.75c0.04-0.25,0.08-0.5,0.12-0.75c0.04-0.25,0.08-0.5,0.12-0.74c0.04-0.26,0.09-0.52,0.13-0.77
			c0.02-0.11,0.04-0.21,0.05-0.32c0.03-0.17,0.07-0.32,0.1-0.48c0.05-0.28,0.1-0.54,0.16-0.81c0.07-0.31,0.14-0.61,0.23-0.9
			c0.1-0.34,0.21-0.66,0.32-0.97c1.04-2.69,2.85-4.4,5.71-5.34c0.32-0.11,0.68-0.19,1.03-0.28c0.21-0.05,0.39-0.12,0.6-0.16
			c0.12-0.02,0.23-0.06,0.35-0.08c0.32-0.07,0.64-0.15,0.97-0.23c0.31-0.07,0.62-0.14,0.92-0.22c0.31-0.07,0.62-0.14,0.92-0.22
			c0.31-0.08,0.62-0.16,0.92-0.24c0.3-0.08,0.6-0.16,0.9-0.25c0.3-0.08,0.6-0.16,0.9-0.25c0.3-0.08,0.6-0.16,0.89-0.24
			c0.29-0.08,0.57-0.17,0.86-0.25c0.29-0.09,0.57-0.17,0.86-0.26c0.29-0.09,0.58-0.17,0.86-0.26c0.27-0.08,0.55-0.16,0.81-0.25
			c0.28-0.09,0.55-0.17,0.83-0.26c0.28-0.09,0.55-0.17,0.83-0.26c0.28-0.09,0.55-0.18,0.83-0.26c0.27-0.09,0.55-0.17,0.81-0.26
			c0.06-0.02,0.13-0.04,0.19-0.06c0.2-0.06,0.4-0.14,0.6-0.2c0.26-0.09,0.53-0.17,0.79-0.27c0.26-0.09,0.52-0.2,0.79-0.3
			c0.27-0.1,0.54-0.21,0.81-0.32c0.27-0.11,0.53-0.23,0.8-0.35c0.27-0.12,0.54-0.25,0.81-0.39c0.27-0.13,0.54-0.27,0.8-0.42
			c0.27-0.15,0.53-0.32,0.8-0.48c0.27-0.17,0.53-0.33,0.79-0.51c0.28-0.2,0.55-0.41,0.82-0.63c0.29-0.24,0.57-0.5,0.84-0.77
			c0.28-0.27,0.55-0.55,0.8-0.86c0.25-0.3,0.5-0.59,0.72-0.92c0.04-0.06,0.08-0.12,0.12-0.18c0.31-0.46,0.59-0.89,0.84-1.28
			c0.29-0.46,0.54-0.88,0.74-1.27C208.65,178.99,208.72,177.87,207.96,176.36z"/>
		<path class="st0" d="M210.17,175.7c-1.75-3.57-4.2-6.59-7.29-8.97c-1.71-1.32-3.44-2.63-5.16-3.95c-2.06-1.57-4.11-3.15-6.17-4.72
			c-3.36-2.56-5.2-5.39-5.58-8.6l-0.32,0.13l-0.73,0.31l-0.65,0.28l-0.33,0.14l-0.21,0.09l-0.12,0.05c0.07,0.36,0.18,0.72,0.29,1.08
			c0.17,0.55,0.37,1.1,0.65,1.64c0.62,1.22,1.64,2.85,3.05,4.25c0.26,0.26,0.51,0.52,0.79,0.76c0.13,0.11,0.28,0.21,0.41,0.32
			c0.34,0.28,0.7,0.55,1.05,0.82c0.32,0.25,0.64,0.51,0.97,0.76c0.32,0.24,0.63,0.48,0.95,0.71c0.29,0.21,0.57,0.42,0.85,0.63
			c0.29,0.22,0.59,0.44,0.88,0.65c0.09,0.07,0.19,0.14,0.28,0.21c0.2,0.14,0.4,0.3,0.6,0.44c0.28,0.2,0.55,0.41,0.83,0.61
			c0.28,0.2,0.55,0.41,0.83,0.61c0.28,0.21,0.55,0.41,0.83,0.62c0.27,0.21,0.53,0.43,0.8,0.64c0.27,0.21,0.53,0.42,0.8,0.64
			c0.26,0.21,0.54,0.42,0.8,0.64c0.12,0.1,0.24,0.19,0.35,0.28c0.14,0.12,0.28,0.25,0.42,0.38c0.26,0.23,0.51,0.46,0.77,0.69
			c0.26,0.23,0.52,0.46,0.77,0.7c0.26,0.25,0.51,0.52,0.77,0.77c0.24,0.25,0.49,0.49,0.73,0.74c0.25,0.27,0.5,0.54,0.74,0.81
			c0.25,0.28,0.5,0.56,0.74,0.84c0.24,0.28,0.47,0.55,0.7,0.83c0.23,0.28,0.46,0.57,0.68,0.86c0.19,0.24,0.39,0.48,0.57,0.72
			c0.05,0.07,0.09,0.13,0.14,0.19c0.25,0.34,0.47,0.65,0.66,0.95c0.25,0.39,0.46,0.74,0.63,1.08c0.76,1.51,0.69,2.63-0.17,4.27
			c-0.2,0.39-0.45,0.81-0.74,1.27c-0.25,0.39-0.53,0.82-0.84,1.28c-0.04,0.06-0.08,0.12-0.12,0.18c-0.22,0.33-0.47,0.63-0.72,0.92
			c-0.25,0.3-0.52,0.58-0.8,0.86c-0.27,0.27-0.55,0.53-0.84,0.77c-0.27,0.22-0.54,0.43-0.82,0.63c-0.26,0.18-0.52,0.34-0.79,0.51
			c-0.26,0.16-0.52,0.33-0.8,0.48c-0.26,0.15-0.53,0.28-0.8,0.42c-0.27,0.13-0.54,0.26-0.81,0.39c-0.26,0.12-0.53,0.24-0.8,0.35
			c-0.27,0.11-0.54,0.22-0.81,0.32c-0.26,0.1-0.52,0.2-0.79,0.3c-0.27,0.09-0.53,0.18-0.79,0.27c-0.2,0.07-0.4,0.14-0.6,0.2
			c-0.06,0.02-0.13,0.04-0.19,0.06c-0.26,0.08-0.54,0.17-0.81,0.26c-0.27,0.09-0.55,0.17-0.83,0.26c-0.28,0.09-0.55,0.17-0.83,0.26
			c-0.28,0.09-0.55,0.17-0.83,0.26c-0.27,0.08-0.54,0.16-0.81,0.25c-0.29,0.09-0.57,0.17-0.86,0.26c-0.29,0.09-0.57,0.17-0.86,0.26
			c-0.29,0.08-0.57,0.17-0.86,0.25c-0.29,0.08-0.6,0.16-0.89,0.24c-0.3,0.08-0.6,0.16-0.9,0.25c-0.3,0.08-0.6,0.17-0.9,0.25
			c-0.31,0.08-0.61,0.16-0.92,0.24c-0.31,0.08-0.62,0.14-0.92,0.22c-0.31,0.07-0.61,0.15-0.92,0.22c-0.32,0.07-0.64,0.16-0.97,0.23
			c-0.12,0.03-0.23,0.06-0.35,0.08c-0.21,0.05-0.4,0.11-0.6,0.16c-0.35,0.09-0.71,0.17-1.03,0.28c-2.85,0.94-4.67,2.65-5.71,5.34
			c-0.12,0.31-0.23,0.63-0.32,0.97c-0.08,0.29-0.16,0.59-0.23,0.9c-0.06,0.26-0.11,0.53-0.16,0.81c-0.03,0.17-0.07,0.31-0.1,0.48
			c-0.02,0.11-0.04,0.21-0.05,0.32c-0.04,0.26-0.09,0.52-0.13,0.77c-0.04,0.25-0.08,0.5-0.12,0.74c-0.04,0.25-0.08,0.5-0.12,0.75
			c-0.04,0.25-0.08,0.5-0.12,0.75c-0.04,0.24-0.08,0.47-0.12,0.71c-0.04,0.24-0.08,0.47-0.12,0.71c-0.04,0.24-0.08,0.48-0.13,0.72
			c-0.04,0.24-0.09,0.48-0.14,0.72c-0.04,0.23-0.09,0.46-0.13,0.69c-0.04,0.23-0.09,0.46-0.13,0.69c-0.04,0.23-0.09,0.46-0.13,0.69
			c-0.04,0.23-0.09,0.46-0.13,0.69c-0.04,0.22-0.08,0.44-0.13,0.67c-0.04,0.22-0.08,0.44-0.12,0.66c-0.04,0.22-0.09,0.44-0.14,0.67
			c-0.04,0.22-0.09,0.44-0.14,0.66c-0.04,0.22-0.09,0.43-0.13,0.65c-0.04,0.22-0.09,0.43-0.13,0.64c-0.04,0.21-0.09,0.43-0.13,0.64
			c-0.04,0.21-0.09,0.43-0.13,0.64c-0.04,0.21-0.09,0.43-0.13,0.64c-0.04,0.21-0.09,0.43-0.13,0.64c-0.04,0.21-0.09,0.42-0.14,0.64
			c-0.04,0.21-0.09,0.41-0.13,0.62c-0.04,0.21-0.09,0.41-0.13,0.62s-0.09,0.41-0.13,0.62c-0.04,0.21-0.09,0.41-0.13,0.62
			c-0.04,0.21-0.09,0.41-0.13,0.62c-0.04,0.21-0.09,0.41-0.13,0.62c-0.04,0.2-0.09,0.41-0.13,0.61c0,0.01,0,0.02,0,0.02l-0.12,0.58
			l-0.13,0.6l-0.13,0.6l-0.13,0.6l-0.13,0.6l-0.1,0.45c-0.01,0.05-0.03,0.09-0.04,0.14c-0.44,1.95-1.3,3.82-2.02,5.24
			c-0.98,1.93-3.19,1.68-4.09,1.49c-2.28-0.49-5.24-1.23-7.82-2.58c-1.13-0.59-2.24-1.26-3.33-1.99c-0.24-0.16-0.47-0.32-0.71-0.49
			c-0.24-0.17-0.48-0.33-0.71-0.51c-0.23-0.17-0.47-0.35-0.7-0.53c-0.23-0.18-0.46-0.35-0.69-0.53c-0.21-0.17-0.43-0.35-0.64-0.53
			c-0.21-0.18-0.43-0.35-0.64-0.53c-0.2-0.17-0.39-0.36-0.59-0.53c-0.2-0.18-0.39-0.35-0.59-0.53c-0.2-0.18-0.39-0.37-0.59-0.55
			c-0.19-0.18-0.38-0.37-0.57-0.55c-0.19-0.19-0.38-0.36-0.57-0.55c-0.18-0.18-0.35-0.37-0.53-0.55c-0.18-0.18-0.35-0.36-0.53-0.55
			c-0.15-0.16-0.29-0.3-0.44-0.46c-0.03-0.03-0.06-0.06-0.09-0.09c-0.19-0.2-0.4-0.38-0.6-0.58c-0.2-0.2-0.4-0.39-0.61-0.58
			c-0.22-0.19-0.42-0.4-0.65-0.58c-0.25-0.21-0.51-0.39-0.76-0.59c-0.27-0.21-0.53-0.43-0.8-0.62c-0.3-0.21-0.6-0.41-0.9-0.62
			c-0.32-0.22-0.64-0.44-0.97-0.64c-0.37-0.24-0.75-0.47-1.12-0.69c-0.41-0.25-0.82-0.5-1.23-0.74c-0.02-0.01-0.04-0.01-0.05-0.02
			c-0.42-0.23-0.9-0.32-1.4-0.32c-0.06,0-0.13,0.01-0.19,0.02c-0.47,0.02-0.97,0.09-1.46,0.19c-0.15,0.03-0.3,0.05-0.45,0.08
			c-0.27,0.05-0.52,0.1-0.77,0.14c-0.05,0.01-0.1,0.02-0.15,0.03c-0.35,0.05-0.71,0.13-1.07,0.19c-0.39,0.07-0.78,0.13-1.17,0.21
			c-0.7,0.14-1.41,0.3-2.11,0.46c-0.6,0.14-1.2,0.3-1.8,0.47c-0.57,0.16-1.14,0.32-1.71,0.49c-0.55,0.17-1.1,0.33-1.64,0.51
			c-0.5,0.17-1,0.34-1.5,0.52c-0.49,0.17-0.97,0.35-1.45,0.54c-0.47,0.18-0.94,0.35-1.41,0.54c-0.42,0.17-0.83,0.33-1.26,0.51
			c-0.45,0.19-0.9,0.37-1.35,0.57c-0.21,0.09-2.09,0.94-2.83,1.29c-3.77,1.77-6.95,3.02-10.72,1.76c-4.04-1.36-5.87-3.99-6.1-8.81
			l0.27-1.23c0.2-0.93,0.46-2.09,0.74-3.31c0.04-0.19,0.08-0.37,0.13-0.56c0.04-0.19,0.09-0.38,0.14-0.57
			c0.04-0.19,0.09-0.38,0.14-0.57c0.02-0.08,0.04-0.16,0.06-0.25c0.03-0.11,0.05-0.21,0.08-0.32c0.05-0.19,0.1-0.37,0.14-0.56
			c0.05-0.19,0.1-0.37,0.14-0.56c0.05-0.19,0.09-0.37,0.14-0.56c0.05-0.19,0.09-0.37,0.14-0.56c0.05-0.19,0.1-0.39,0.15-0.58
			c0.05-0.19,0.1-0.39,0.15-0.58c0.05-0.19,0.1-0.39,0.15-0.58c0.05-0.19,0.1-0.39,0.15-0.58c0.04-0.16,0.08-0.33,0.12-0.49
			c0.01-0.03,0.02-0.06,0.02-0.09c0.05-0.19,0.1-0.39,0.15-0.58c0.05-0.19,0.1-0.39,0.15-0.58c0.05-0.19,0.1-0.39,0.15-0.58
			c0.05-0.2,0.1-0.4,0.15-0.59s0.1-0.4,0.15-0.59c0.05-0.2,0.1-0.39,0.15-0.59c0.05-0.2,0.1-0.39,0.15-0.59
			c0.05-0.2,0.1-0.4,0.15-0.6c0.05-0.2,0.09-0.4,0.14-0.6c0.05-0.2,0.1-0.41,0.15-0.62c0.05-0.21,0.1-0.42,0.15-0.62
			c0.05-0.21,0.1-0.42,0.15-0.62c0.05-0.21,0.1-0.42,0.15-0.62c0.05-0.21,0.1-0.42,0.15-0.62c0.02-0.1,0.05-0.21,0.07-0.31
			c0.02-0.11,0.04-0.22,0.06-0.33c0.05-0.23,0.09-0.45,0.13-0.67c0.04-0.24,0.07-0.47,0.1-0.7c0.03-0.24,0.07-0.48,0.09-0.72
			c0.02-0.26,0.04-0.52,0.05-0.79c0.01-0.27,0.02-0.54,0.02-0.81c0-0.29-0.01-0.59-0.02-0.88c-0.02-0.34-0.05-0.69-0.09-1.03
			c-0.05-0.4-0.12-0.79-0.19-1.17c-0.11-0.52-0.24-1.03-0.41-1.53c-0.64-1.96-1.69-3.77-3.16-5.41c-0.38-0.42-0.78-0.83-1.21-1.22
			c-0.33-0.3-0.67-0.59-1.02-0.88c-0.03-0.02-0.06-0.05-0.09-0.07c-0.26-0.21-0.54-0.41-0.8-0.62c-0.3-0.23-0.6-0.46-0.89-0.69
			c-0.3-0.23-0.6-0.46-0.89-0.69c-0.28-0.21-0.56-0.43-0.83-0.64c-0.28-0.21-0.56-0.43-0.84-0.64c-0.27-0.21-0.55-0.41-0.82-0.62
			c-0.26-0.2-0.52-0.39-0.78-0.58c-0.26-0.2-0.52-0.39-0.78-0.58c-0.26-0.2-0.52-0.39-0.78-0.59c-0.25-0.18-0.49-0.37-0.74-0.55
			c-0.25-0.18-0.5-0.37-0.74-0.55c-0.07-0.05-0.14-0.1-0.21-0.16c-0.18-0.13-0.36-0.27-0.53-0.4c-0.24-0.18-0.49-0.37-0.73-0.55
			c-0.23-0.17-0.47-0.35-0.7-0.53c-0.23-0.18-0.47-0.35-0.7-0.53c-0.24-0.18-0.47-0.35-0.71-0.53c-0.24-0.18-0.47-0.35-0.71-0.53
			c-0.23-0.17-0.45-0.34-0.68-0.52c-0.23-0.17-0.45-0.35-0.67-0.52c-0.23-0.17-0.45-0.35-0.67-0.52c-0.23-0.17-0.45-0.35-0.67-0.52
			c-0.23-0.17-0.45-0.34-0.68-0.52c-0.22-0.17-0.43-0.33-0.65-0.5c-0.21-0.17-0.43-0.33-0.65-0.5c-0.01-0.01-0.02-0.01-0.02-0.02
			c-0.22-0.17-0.42-0.35-0.62-0.52c-0.22-0.19-0.44-0.39-0.65-0.59c-0.22-0.2-0.43-0.41-0.63-0.62c-0.22-0.23-0.43-0.47-0.63-0.71
			c-0.21-0.26-0.42-0.52-0.61-0.78c-0.21-0.29-0.42-0.59-0.6-0.89c-0.21-0.34-0.41-0.69-0.6-1.05c-0.2-0.39-0.38-0.78-0.54-1.18
			c-0.17-0.43-0.33-0.86-0.45-1.3c-0.02-0.07-0.02-0.13-0.04-0.19c-0.38-1.51-0.12-2.97,0.72-4.25c0.26-0.39,0.57-0.76,0.93-1.11
			c0.25-0.25,0.53-0.48,0.84-0.7c0.05-0.04,0.09-0.08,0.15-0.12c0.22-0.15,0.44-0.29,0.66-0.44c0.27-0.18,0.55-0.37,0.82-0.55
			c0.29-0.18,0.57-0.36,0.86-0.54c0.28-0.17,0.57-0.34,0.85-0.51c0.29-0.17,0.57-0.34,0.86-0.51c0.29-0.17,0.58-0.32,0.88-0.48
			c0.29-0.16,0.58-0.33,0.88-0.48c0.29-0.16,0.59-0.3,0.89-0.46c0.31-0.16,0.61-0.32,0.92-0.47c0.3-0.15,0.61-0.3,0.91-0.44
			c0.29-0.14,0.59-0.28,0.88-0.42c0.32-0.15,0.64-0.3,0.96-0.45c0.32-0.15,0.64-0.29,0.96-0.44c0.32-0.15,0.64-0.29,0.96-0.43
			c0.34-0.15,0.68-0.3,1.02-0.45c0.34-0.15,0.68-0.3,1.02-0.45c0.35-0.15,0.71-0.31,1.06-0.46c0.15-0.07,0.31-0.14,0.46-0.2
			l0.64-0.28l1.06-0.46l0.63-0.27c0.19-0.08,0.39-0.17,0.58-0.25c0.4-0.17,0.8-0.35,1.21-0.53c0.43-0.19,0.88-0.38,1.32-0.57
			c0.45-0.19,0.9-0.38,1.37-0.58c0.47-0.2,0.96-0.4,1.44-0.6c0.52-0.22,1.05-0.44,1.59-0.66c0.56-0.23,1.12-0.46,1.7-0.7
			c0.01-0.01,0.03-0.01,0.04-0.02c1.67-0.68,2.84-1.65,3.68-2.78c0.27-0.36,0.51-0.74,0.71-1.13c0.17-0.31,0.31-0.64,0.44-0.97
			c0.11-0.28,0.21-0.56,0.3-0.84c0.08-0.26,0.15-0.53,0.22-0.8c0.06-0.24,0.11-0.49,0.16-0.74c0.05-0.24,0.09-0.48,0.12-0.71
			c0.04-0.23,0.07-0.47,0.1-0.7c0.03-0.23,0.06-0.46,0.08-0.69c0.02-0.22,0.04-0.44,0.06-0.66c0-0.02,0-0.04,0.01-0.05
			c0.02-0.2,0.03-0.4,0.05-0.6c0.02-0.22,0.04-0.44,0.05-0.65c0.02-0.22,0.04-0.44,0.05-0.65c0.02-0.22,0.04-0.44,0.05-0.65
			c0.02-0.22,0.04-0.43,0.05-0.65c0.01-0.14,0.02-0.28,0.03-0.42c0.01-0.07,0.01-0.14,0.02-0.21c0.02-0.21,0.03-0.42,0.05-0.63
			c0.02-0.21,0.03-0.42,0.05-0.63c0.02-0.21,0.03-0.42,0.05-0.63c0.02-0.21,0.03-0.42,0.05-0.64c0.02-0.21,0.04-0.42,0.06-0.63
			c0.02-0.21,0.04-0.41,0.06-0.62c0.02-0.2,0.04-0.4,0.05-0.6c0.02-0.2,0.04-0.41,0.06-0.61c0.02-0.21,0.05-0.41,0.07-0.62
			c0.02-0.21,0.05-0.41,0.07-0.62c0.02-0.21,0.04-0.41,0.07-0.62c0.02-0.21,0.04-0.41,0.07-0.62c0.02-0.21,0.05-0.41,0.08-0.61
			c0.03-0.2,0.06-0.4,0.08-0.6c0.03-0.2,0.05-0.4,0.08-0.6c0.04-0.32,0.08-0.63,0.13-0.95c0.5-3.25,1.39-6.61,2.64-9.98
			c0.53-1.43,1.63-2.92,3.36-4.57c0.24-0.22,1.55-0.18,2.31,0.2l0.33,0.17c3.18,1.6,6.47,3.25,9.4,5.27
			c2.9,1.99,5.77,4.14,8.55,6.21c0.09,0.07,0.19,0.14,0.28,0.21c0.25,0.19,0.51,0.38,0.76,0.56c0.25,0.19,0.51,0.38,0.76,0.56
			c0.25,0.19,0.5,0.37,0.76,0.56c0.25,0.19,0.5,0.37,0.76,0.56c0.27,0.2,0.53,0.39,0.79,0.58c0.28,0.2,0.56,0.4,0.84,0.6
			c0.28,0.2,0.56,0.4,0.84,0.6c0.28,0.2,0.56,0.4,0.83,0.6c0.28,0.2,0.56,0.41,0.84,0.6c0.15,0.11,0.3,0.22,0.45,0.32
			c0.17,0.12,0.35,0.21,0.52,0.32c0.36,0.23,0.71,0.46,1.09,0.66c0.42,0.23,0.85,0.44,1.29,0.63l0.04-0.36l0.01-0.04l0.04-0.33
			l0.09-0.71l0.1-0.83l0.04-0.36c-0.57-0.31-1.12-0.66-1.67-1.07c-1.03-0.77-2.06-1.54-3.1-2.31c-0.33-0.25-0.67-0.5-1.01-0.75
			c-4.08-3.05-8.27-6.16-12.53-9.06c-2.66-1.82-5.76-3.5-9.77-5.3c-1.19-0.53-2.21-0.79-3.15-0.8c-0.3,0-0.59,0.03-0.87,0.08
			c-1.42,0.28-2.62,1.26-3.78,3.06c-1.19,1.84-2.06,3.88-2.53,5.89c-0.82,3.54-1.45,6.83-1.93,9.97c-0.66,4.33-1.01,8.36-1.06,12.27
			c0,0.14-0.02,0.26-0.03,0.39c-0.12,3.31-1.22,5.63-3.4,7.1c-0.64,0.43-1.36,0.8-2.19,1.1c-2.7,0.95-5.45,2.05-8.31,3.32
			c-1.24,0.55-2.49,1.12-3.77,1.73c-3.22,1.54-6.43,3.24-9.53,4.89c-1.56,0.83-3.13,1.66-4.7,2.47c-0.2,0.11-0.37,0.24-0.56,0.35
			c-3.21,1.96-4.49,5.38-3.38,9.04c0.07,0.24,0.12,0.48,0.22,0.73c1.62,4.19,4.87,6.91,8.01,9.55c0.81,0.68,1.63,1.37,2.41,2.07
			c1.78,1.61,3.86,2.82,5.87,3.99c2.4,1.4,4.89,2.85,6.89,5c0.16,0.18,0.32,0.35,0.49,0.53c3.41,3.72,6.25,7.56,5.3,12.94
			c-0.68,3.87-1.67,7.76-2.63,11.51c-0.44,1.72-0.88,3.45-1.29,5.18c-0.35,1.45-0.68,2.9-1.02,4.34l-0.46,1.99l0.01,0.07
			c0.09,0.57,0.14,1.15,0.19,1.72c0.05,0.52,0.1,1.02,0.17,1.51c0.11,0.71,0.27,1.38,0.6,1.98c0.43,0.78,1.12,1.57,1.96,2.32
			c0.29,0.26,0.6,0.51,0.93,0.75c2.91,2.15,7.14,3.62,10.39,2.4c1.36-0.51,2.73-1.01,4.09-1.51c3.4-1.25,6.92-2.54,10.32-3.96
			c3.97-1.66,7.82-2.59,11.77-2.83c2.05-0.13,3.78,0.41,5.27,1.65c0.27,0.22,0.51,0.45,0.77,0.68c0.54,0.48,1.05,0.96,1.51,1.44
			c0.18,0.19,0.38,0.37,0.55,0.56c3.64,4.06,7.91,7.6,12.69,10.51c3.24,1.97,6.17,2.92,9.07,2.92c0.7,0,1.4-0.06,2.09-0.16
			c1.82-0.29,3.99-0.94,4.58-3.5c0.55-2.39,1.12-4.78,1.68-7.17c1.56-6.62,3.17-13.46,4.49-20.24c1.13-5.81,2.87-7.91,7.46-8.98
			l1.1-0.25l0.85-0.2c3.55-0.81,7.23-1.65,10.71-2.87c1.81-0.63,3.67-1.34,5.46-2.26c0.09-0.05,0.18-0.09,0.27-0.14
			c3.54-1.86,6.72-4.56,8.41-9.12C210.97,178.82,210.94,177.27,210.17,175.7z"/>
		<g>
			<path class="st0" d="M260.01,170.34c1.08-3.74,0.73-7.34-0.77-10.99c-1.25-3.04-2.31-6.48-0.59-9.58
				c1.68-3.04,1.67-6.08,1.14-9.2c-0.5-2.95-0.87-6.03-3.44-8.21c-1.2-1.02-1.46-2.47-1.53-4.1c-0.1-2.54-0.35-5.14-1.04-7.56
				l-0.97,0.41c0.23,0.67,0.41,1.37,0.51,2.12c0.16,1.17,0.31,2.37,0.22,3.54c-0.17,2.39-0.05,4.61,1.93,6.33
				c1.98,1.72,2.5,4.12,2.93,6.56c0.62,3.56,0.96,7.05-1.3,10.28c-0.44,0.63-0.57,1.7-0.41,2.47c0.59,2.93,1.13,5.9,2.12,8.71
				c1.43,4.1,0.44,7.95-0.68,11.82c-0.47,1.64-1.28,3.18-1.66,4.83c-0.17,0.72,0.1,1.75,0.55,2.38c2.69,3.75,2.63,7.36,0.25,11.29
				c-3.17,5.23-5.37,10.76-4.64,17.16c0.36,3.18-1.24,5.97-2.89,8.63c-2.08,3.35-4.84,6.01-8.17,8.05
				c-3.55,2.17-4.11,5.77-4.62,9.37c-0.47,3.34-1.5,6.44-4.4,8.3c-2.29,1.47-4.87,2.7-7.49,3.37c-1.89,0.48-2.83,1.44-3.58,2.94
				c-0.29,0.59-0.55,1.24-0.62,1.88c-0.44,4.21-3.57,5.82-6.96,6.89c-3.13,0.99-6.39,1.63-9.63,2.21c-3.4,0.61-5.97,2.57-7.52,5.33
				c-2.52,4.5-6.49,5.41-11.01,5.56c-1.05,0.03-2.1,0.01-3.56,0.01c-0.39,0.02-1.19,0.16-1.98,0.08c-3.44-0.33-6.39,0.55-8.69,3.27
				c-2.35,2.78-5.56,3.21-8.86,2.82c-3.86-0.45-7.73-1-11.51-1.9c-4.03-0.97-7.81-0.41-11.36,1.32c-5.55,2.7-10.52,1.52-15.26-1.73
				c-2.77-1.91-5.9-2.54-9.08-3.15c-5.06-0.98-10.15-1.35-15.32-1.39c-3.52-0.02-6.91-1.14-9.14-4.34c-2.14-3.07-5.04-5.11-8.6-6.32
				c-3.05-1.04-6.08-2.17-8.99-3.53c-1.22-0.57-2.32-1.7-3.1-2.84c-1.83-2.66-3.46-5.37-6.41-7.1c-2.71-1.59-5.33-3.44-7.63-5.56
				c-1.52-1.4-2.62-3.39-3.54-5.29c-1.67-3.45-3.36-6.69-6.68-9c-3.76-2.62-7.13-5.6-7.01-10.96c0.09-3.78-1.87-6.94-4.25-9.8
				c-0.76-0.91-1.68-1.77-2.17-2.82c-0.67-1.45-1.63-3.2-1.34-4.58c1.07-5.07,0.19-9.61-2.4-14.01c-0.98-1.67-1.6-3.58-2.26-5.42
				c-0.67-1.89-0.34-3.86,0.94-5.25c2.83-3.07,2.2-6.3,0.49-9.34c-1.97-3.52-1.29-6.62,0.67-9.68c1.19-1.86,1.44-3.71,0.38-5.59
				c-1.95-3.45-1-6.53,1.17-9.38c1.56-2.05,2.07-4.23,1.51-6.69c-0.46-2.06,0.06-3.96,1.51-5.29c2.4-2.21,2.81-4.91,2.83-7.91
				c0.01-1.82,0.38-3.65,0.68-5.46c0.08-0.48,0.38-1.12,0.77-1.34c2.92-1.6,3.46-4.53,4.01-7.34c0.81-4.12,3.91-6.3,6.93-8.43
				c1.78-1.26,2.7-2.79,3.27-4.71c0.72-2.4,2.12-4,4.72-4.5c2.39-0.45,3.4-2.73,4.15-4.46c1.44-3.31,3.76-5.32,6.89-6.64
				c2.58-1.09,4.13-3.17,5.45-5.47c2.66-4.64,6.33-8.02,11.4-9.94c1.66-0.63,3.35-1.65,4.56-2.93c2.26-2.38,4.91-3.8,7.96-4.89
				c4.24-1.52,8.65-1.55,13-2.21c1.63-0.25,3.36-0.89,4.71-1.83c3.8-2.67,7.89-3.09,12.2-1.97c4.36,1.14,8.69,2.37,13.25,1.42
				c0.95-0.2,1.98-0.44,2.76-0.97c3.33-2.24,6.66-1.83,9.92-0.03c0.58,0.32,1.17,0.56,1.77,0.75l0.07-0.54l0.1-0.78
				c-0.52-0.18-1.04-0.4-1.56-0.68c-3.36-1.84-6.88-1.87-10.45-0.08c-1.58,0.79-3.43,1.21-5.2,1.43c-3.71,0.47-7.09-1.23-10.63-1.88
				c-3.91-0.72-7.98-1.08-11.55,1.45c-2.22,1.57-4.58,2.43-7.35,2.58c-2.87,0.16-5.77,0.6-8.55,1.34
				c-3.94,1.06-7.83,2.34-10.84,5.41c-1.13,1.15-2.41,2.39-3.87,2.93c-5.65,2.1-9.77,5.74-12.88,10.9c-1.23,2.05-3.19,4.03-5.3,5.08
				c-3.11,1.55-5.03,3.75-6.61,6.72c-0.9,1.7-2.45,3.71-4.11,4.21c-2.87,0.85-4.49,2.49-5.24,5.07c-0.63,2.17-1.81,3.72-3.64,4.96
				c-3.67,2.48-6.44,5.57-7,10.25c-0.22,1.81-0.76,3.57-2.79,4.46c-0.65,0.28-1.23,1.27-1.39,2.04c-0.44,2.11-0.84,4.27-0.9,6.42
				c-0.07,2.55-0.54,4.73-2.47,6.64c-1.59,1.57-2.32,3.68-1.88,6.01c0.41,2.17,0.21,4.12-1.19,6c-2.59,3.47-3.52,7.13-1.16,11.26
				c0.48,0.85,0.2,2.59-0.38,3.51c-2.52,4-2.89,7.89-0.54,12.13c1.24,2.23,1.25,4.56-0.55,6.83c-1.69,2.12-2.09,4.73-1.12,7.33
				c0.88,2.34,1.67,4.79,3.04,6.84c2.09,3.13,2.38,6.48,1.59,9.83c-0.87,3.66,0.47,6.49,2.75,8.84c3.33,3.44,4.73,7.43,5.14,12.09
				c0.17,1.91,1.11,3.96,2.28,5.52c1.32,1.76,3.35,2.97,4.95,4.53c1.53,1.49,3.13,2.98,4.29,4.74c1.17,1.77,1.77,3.91,2.75,5.83
				c1.57,3.08,4.61,4.65,7.2,6.64c3.26,2.51,7.33,4.19,9.02,8.31c1.28,3.12,3.72,4.29,6.7,5.23c5.64,1.77,11.46,3.28,15.01,8.78
				c2.15,3.33,5.7,4.33,9.44,4.62c3.93,0.31,7.89,0.32,11.8,0.8c3.9,0.48,7.92,0.65,11.43,2.87c1.66,1.05,3.37,2.06,5.17,2.83
				c3.86,1.65,7.74,1.77,11.63-0.15c2.91-1.44,5.97-2.55,9.34-1.9c4.28,0.82,8.53,1.96,12.84,2.41c3.51,0.37,7.23,0.29,9.9-2.76
				c2.35-2.69,5.21-3.92,8.79-3.41c0.71,0.1,1.45,0.01,2.18,0.01c0-0.02,0-0.05,0-0.07c1.52,0,3.05,0.07,4.57-0.01
				c4.39-0.23,7.88-1.8,10.4-5.76c1.26-1.98,3.44-3.78,5.62-4.65c3.07-1.24,6.5-1.62,9.79-2.23c4.57-0.85,7.88-3.87,8.93-8.23
				c0.23-0.94,0.5-2.26,1.18-2.64c2.51-1.41,5.22-2.44,7.8-3.75c1.41-0.72,2.91-1.49,3.98-2.61c2.27-2.38,3.02-5.5,3.51-8.67
				c0.38-2.48,0.67-5.08,3-6.62c3.4-2.25,6.04-5.17,8.51-8.4c2.59-3.39,3.98-7.21,3.63-11.25c-0.48-5.6,1.64-10.17,4.28-14.72
				c0.72-1.25,1.75-2.44,2.05-3.79c0.71-3.27,0.21-6.4-1.93-9.17c-0.37-0.48-0.49-1.39-0.32-1.99
				C258.41,175.23,259.3,172.81,260.01,170.34z"/>
			<path class="st1" d="M236.15,129.35c3.25,1.89,4.06,4.98,4.2,8.42c0.04,0.92-0.05,1.9,0.25,2.74c0.82,2.25,1.14,4.58,0.38,6.79
				c-1.5,4.36-0.08,8.38,1.25,12.35c1.08,3.24,0.62,6.02-1.08,8.85c-1.79,2.99-2.43,6.26-1.83,9.73c0.29,1.69,0.79,3.37,0.85,5.07
				c0.04,1.09-0.25,2.43-0.9,3.27c-0.98,1.28-2.32,2.34-3.65,3.29c-2.06,1.47-3.06,3.39-3.07,5.89c-0.01,2.44-0.11,4.89-0.09,7.33
				c0.03,3.71-1.68,6.28-5.01,7.81c-2.88,1.33-5.39,3.18-6.93,5.97c-0.83,1.5-1.27,3.29-1.52,5.01c-0.59,4.01-2.34,6.06-6.31,7.07
				c-3.14,0.8-5.3,2.69-6.54,5.77c-0.7,1.75-1.88,3.29-2.76,4.98c-0.96,1.84-2.59,2.37-4.46,2.38c-3.07,0.02-5.86,0.91-8.41,2.55
				c-0.86,0.55-1.56,1.37-2.33,2.07c-1.81,1.63-3.43,3.61-5.5,4.77c-1.52,0.85-3.84,1.28-5.45,0.76c-5-1.6-8.71,0.64-12.45,3.28
				c-3.6,2.54-7.62,3.53-11.81,2.24c-3.03-0.93-5.7-0.47-8.46,0.62c-1.72,0.68-3.43,1.39-5.2,1.91c-5.2,1.52-9.41-0.84-13.43-3.65
				c-2.08-1.45-4.23-2.23-6.82-2.21c-3.36,0.03-6.77,0.03-10.06-0.54c-2.43-0.42-4.84-1.3-6.72-3.34c-2.29-2.49-5.35-3.98-8.7-4.33
				c-4.41-0.45-7.73-2.18-9.93-6.18c-1.49-2.71-3.8-4.64-6.74-5.87c-1.99-0.83-3.89-1.96-5.7-3.14c-3.06-2-4.23-5-3.83-8.55
				c0.23-2.02-0.52-3.43-2.02-4.61c-1.51-1.18-3.04-2.33-4.52-3.55c-2.63-2.16-3.74-4.91-2.98-8.27c0.63-2.77-0.37-4.61-2.72-6.15
				c-4.24-2.76-6.92-6.71-7.49-11.79c-0.17-1.51,0.26-3.16,0.75-4.64c0.65-1.94,0.58-3.79-0.1-5.62c-1.2-3.2-2.14-6.21-0.2-9.64
				c1.5-2.66,0.48-5.65-0.39-8.45c-0.44-1.44-0.9-2.91-1.1-4.39c-0.2-1.43,0.06-2.68,1.23-3.92c1.68-1.78,1.48-4.23,0.76-6.4
				c-1.43-4.29-1.06-8,2.59-11.08c1.72-1.45,2.14-3.3,1.53-5.55c-1.46-5.46,0.2-8.54,5.43-12.28c0.81-0.58,1.61-1.48,1.93-2.4
				c0.78-2.23,1.47-4.53,1.82-6.86c0.45-2.95,2.02-4.91,4.7-5.82c3.61-1.22,6.21-3.64,7.97-6.79c3.07-5.46,7.33-9.92,12.05-13.78
				c2.18-1.79,5.51-2.54,8.43-2.96c3.3-0.48,6.24-1.26,8.28-3.99c2.54-3.41,6.06-5.08,10.09-5.58c1.69-0.21,3.54,0.24,5.22,0.71
				c2.31,0.65,4.44,0.03,5.93-1.37c3.83-3.61,7.99-3.96,12.59-2.08c1.91,0.78,3.66,0.52,5.55-0.21c2.2-0.85,4.51-1.51,6.84-1.92
				c0.95-0.17,2.38,0.24,3.04,0.92c0.01,0.01,0.01,0.01,0.02,0.02l1.87-15.2c-0.59-0.2-1.19-0.43-1.77-0.75
				c-3.26-1.8-6.58-2.2-9.92,0.03c-0.79,0.53-1.81,0.77-2.76,0.97c-4.56,0.95-8.89-0.28-13.25-1.42c-4.31-1.12-8.4-0.7-12.2,1.97
				c-1.35,0.94-3.07,1.59-4.71,1.83c-4.34,0.66-8.76,0.69-13,2.21c-3.05,1.09-5.7,2.51-7.96,4.89c-1.21,1.28-2.9,2.31-4.56,2.93
				c-5.08,1.91-8.75,5.3-11.4,9.94c-1.32,2.3-2.87,4.38-5.45,5.47c-3.13,1.33-5.45,3.33-6.89,6.64c-0.75,1.74-1.76,4.01-4.15,4.46
				c-2.6,0.49-4,2.09-4.72,4.5c-0.58,1.92-1.49,3.45-3.27,4.71c-3.02,2.13-6.13,4.32-6.93,8.43c-0.55,2.81-1.1,5.73-4.01,7.34
				c-0.39,0.21-0.69,0.85-0.77,1.34c-0.3,1.81-0.66,3.64-0.68,5.46c-0.02,3.01-0.43,5.71-2.83,7.91c-1.45,1.33-1.97,3.23-1.51,5.29
				c0.55,2.46,0.05,4.64-1.51,6.69c-2.17,2.85-3.11,5.93-1.17,9.38c1.06,1.89,0.82,3.73-0.38,5.59c-1.96,3.06-2.64,6.16-0.67,9.68
				c1.7,3.04,2.33,6.27-0.49,9.34c-1.28,1.39-1.61,3.36-0.94,5.25c0.66,1.84,1.27,3.75,2.26,5.42c2.59,4.4,3.47,8.94,2.4,14.01
				c-0.29,1.38,0.67,3.13,1.34,4.58c0.48,1.05,1.4,1.91,2.17,2.82c2.38,2.85,4.34,6.02,4.25,9.8c-0.13,5.37,3.25,8.35,7.01,10.96
				c3.32,2.31,5.01,5.56,6.68,9c0.92,1.9,2.02,3.89,3.54,5.29c2.3,2.12,4.92,3.97,7.63,5.56c2.95,1.73,4.58,4.44,6.41,7.1
				c0.78,1.14,1.88,2.27,3.1,2.84c2.91,1.36,5.94,2.5,8.99,3.53c3.56,1.21,6.45,3.25,8.6,6.32c2.23,3.2,5.62,4.32,9.14,4.34
				c5.17,0.03,10.25,0.41,15.32,1.39c3.18,0.61,6.31,1.25,9.08,3.15c4.74,3.26,9.72,4.43,15.26,1.73c3.55-1.73,7.33-2.28,11.36-1.32
				c3.77,0.91,7.65,1.45,11.51,1.9c3.3,0.38,6.52-0.05,8.86-2.82c2.3-2.72,5.25-3.6,8.69-3.27c0.78,0.07,1.58-0.06,1.98-0.08
				c1.45,0,2.51,0.03,3.56-0.01c4.52-0.15,8.49-1.06,11.01-5.56c1.55-2.76,4.13-4.72,7.52-5.33c3.24-0.58,6.5-1.22,9.63-2.21
				c3.39-1.07,6.52-2.68,6.96-6.89c0.07-0.64,0.33-1.29,0.62-1.88c0.75-1.5,1.69-2.46,3.58-2.94c2.62-0.67,5.2-1.9,7.49-3.37
				c2.9-1.85,3.93-4.96,4.4-8.3c0.5-3.6,1.07-7.19,4.62-9.37c3.33-2.04,6.09-4.7,8.17-8.05c1.65-2.66,3.25-5.45,2.89-8.63
				c-0.73-6.4,1.47-11.93,4.64-17.16c2.38-3.93,2.44-7.54-0.25-11.29c-0.45-0.62-0.72-1.66-0.55-2.38c0.39-1.65,1.19-3.2,1.66-4.83
				c1.12-3.88,2.11-7.72,0.68-11.82c-0.98-2.81-1.52-5.78-2.12-8.71c-0.16-0.78-0.03-1.85,0.41-2.47c2.26-3.23,1.93-6.72,1.3-10.28
				c-0.43-2.44-0.95-4.84-2.93-6.56c-1.98-1.73-2.1-3.95-1.93-6.33c0.08-1.17-0.06-2.37-0.22-3.54c-0.1-0.75-0.28-1.45-0.51-2.12
				l-17.7,7.51C235.43,128.87,235.77,129.13,236.15,129.35z"/>
			<path class="st0" d="M233.84,129.15c0.21,0.18,0.43,0.34,0.67,0.5c0.27,0.17,0.54,0.34,0.85,0.49c3.29,1.59,3.09,4.57,3.52,7.38
				c0.04,0.25,0.08,0.5,0.13,0.75c0.14,0.81,0.29,1.63,0.43,2.44c0.11,0.68,0.22,1.36,0.27,2.04c0.13,1.55,0.39,3.27-0.1,4.68
				c-1.52,4.38-0.07,8.4,1.28,12.36c0.12,0.35,0.22,0.7,0.3,1.04c0.03,0.13,0.04,0.25,0.07,0.37c0.04,0.21,0.08,0.42,0.1,0.63
				c0.02,0.15,0.02,0.3,0.03,0.46c0.01,0.17,0.02,0.35,0.02,0.52c0,0.17-0.01,0.33-0.02,0.5c-0.01,0.15-0.02,0.3-0.03,0.44
				c-0.02,0.18-0.05,0.36-0.08,0.54c-0.02,0.13-0.05,0.25-0.07,0.38c-0.04,0.19-0.09,0.38-0.14,0.58c-0.03,0.1-0.06,0.21-0.1,0.31
				c-0.07,0.21-0.14,0.42-0.22,0.63c-0.03,0.07-0.06,0.14-0.09,0.22c-0.21,0.5-0.45,1.01-0.74,1.51c-1.8,3.14-2.46,6.52-1.81,10.13
				c0.27,1.49,0.47,2.99,0.75,4.48c0.34,1.86-0.09,3.4-1.74,4.49c-0.27,0.18-0.49,0.45-0.78,0.6c-6.14,3.17-5.21,8.97-5.03,14.26
				c0.02,0.52,0.01,1.01-0.03,1.47c-0.02,0.26-0.07,0.49-0.11,0.73c-0.03,0.2-0.05,0.4-0.09,0.59c-0.07,0.31-0.17,0.59-0.27,0.88
				c-0.04,0.1-0.06,0.21-0.1,0.3c-0.13,0.32-0.29,0.62-0.46,0.91c-0.03,0.05-0.05,0.1-0.08,0.15c-0.19,0.31-0.41,0.6-0.65,0.88
				c-0.02,0.02-0.03,0.04-0.05,0.07c-0.25,0.29-0.54,0.56-0.84,0.82c-0.01,0.01-0.01,0.01-0.02,0.02c-0.31,0.26-0.66,0.51-1.03,0.75
				c0,0,0,0,0,0c-0.46,0.29-0.95,0.57-1.49,0.82c-3.32,1.54-5.74,4.18-7.46,7.33c-0.65,1.2-0.62,2.79-0.83,4.21
				c-0.06,0.41-0.14,0.79-0.22,1.15l0,0c-0.06,0.24-0.13,0.46-0.2,0.68c-0.04,0.12-0.07,0.25-0.11,0.36
				c-0.07,0.19-0.15,0.36-0.23,0.53c-0.06,0.12-0.11,0.24-0.17,0.35c-0.09,0.15-0.18,0.29-0.28,0.43c-0.08,0.11-0.16,0.22-0.24,0.32
				c-0.1,0.12-0.21,0.24-0.33,0.35c-0.1,0.1-0.21,0.19-0.32,0.28c-0.12,0.1-0.24,0.2-0.38,0.28c-0.14,0.09-0.29,0.18-0.43,0.26
				c-0.13,0.08-0.26,0.15-0.41,0.22c-0.19,0.09-0.41,0.18-0.62,0.27c-0.13,0.05-0.25,0.11-0.39,0.16c-0.37,0.13-0.76,0.26-1.18,0.38
				c-0.46,0.13-0.91,0.29-1.34,0.46c-0.07,0.03-0.14,0.06-0.21,0.09c-0.38,0.15-0.74,0.32-1.09,0.51c-0.05,0.02-0.09,0.05-0.13,0.07
				c-0.38,0.21-0.74,0.43-1.09,0.68c-0.02,0.01-0.03,0.02-0.05,0.03c-0.37,0.27-0.72,0.56-1.05,0.87c0,0,0,0,0,0
				c-0.23,0.22-0.45,0.46-0.65,0.7c-0.04,0.05-0.08,0.1-0.12,0.15c-0.17,0.22-0.34,0.44-0.5,0.68c-0.09,0.13-0.16,0.27-0.25,0.41
				c-0.11,0.18-0.22,0.37-0.32,0.56c-0.18,0.36-0.34,0.74-0.48,1.14c-0.51,1.48-1.29,2.9-2.11,4.24c-0.81,1.32-1.91,2.41-3.65,2.37
				c-6.24-0.14-10.56,3.26-14.44,7.63c-1.92,2.17-4.21,3.45-7.36,2.52c-4.59-1.35-8.57,0.32-12.23,2.97
				c-3.95,2.85-8.1,4.2-12.96,2.42c-2.94-1.08-5.7,0.12-8.41,1.19c-1.04,0.41-2.08,0.83-3.13,1.22c-0.53,0.19-1.04,0.33-1.55,0.46
				c-0.22,0.05-0.43,0.1-0.64,0.14c-0.25,0.05-0.51,0.08-0.76,0.11c-1.01,0.13-2,0.14-2.97,0.02c-0.06-0.01-0.12-0.02-0.18-0.03
				c-0.61-0.08-1.2-0.21-1.79-0.38c-0.12-0.04-0.25-0.07-0.37-0.11c-0.27-0.09-0.54-0.18-0.81-0.29c-0.25-0.1-0.49-0.21-0.73-0.32
				c-0.26-0.12-0.51-0.24-0.77-0.37c-0.35-0.18-0.69-0.38-1.04-0.6c-0.14-0.09-0.28-0.18-0.42-0.27c-0.44-0.29-0.88-0.6-1.31-0.94
				c-3.11-2.44-6.46-3.26-10.52-2.93c-3.54,0.29-7.24-0.4-10.73-1.23c-1.54-0.36-2.73-2.16-4.11-3.26c-0.59-0.47-1.2-0.92-1.82-1.32
				c0,0-0.01,0-0.01-0.01c-0.63-0.4-1.27-0.77-1.94-1.09c-0.39-0.19-0.78-0.35-1.18-0.51c-0.02-0.01-0.04-0.02-0.06-0.02
				c-0.37-0.14-0.74-0.25-1.12-0.36c-0.06-0.02-0.11-0.03-0.17-0.05c-0.35-0.09-0.7-0.16-1.06-0.22c-0.08-0.01-0.16-0.03-0.24-0.05
				c-0.43-0.06-0.87-0.1-1.32-0.12c-4.72-0.13-6.96-3.38-9.44-6.62c-0.29-0.37-0.6-0.73-0.92-1.08c-0.2-0.21-0.42-0.42-0.63-0.62
				c-0.12-0.12-0.24-0.24-0.37-0.36c-0.3-0.27-0.61-0.54-0.93-0.79c-0.04-0.03-0.08-0.07-0.12-0.1c-0.36-0.28-0.72-0.56-1.09-0.82
				c-0.13-0.09-0.25-0.19-0.37-0.27c-2.39-1.63-5.09-2.83-7.48-4.47c-2.33-1.6-3.52-3.91-2.96-6.86c0.05-0.28,0.08-0.55,0.09-0.81
				c0.01-0.11,0-0.22,0-0.33c0-0.14,0.01-0.29,0-0.43c-0.01-0.14-0.03-0.27-0.04-0.41c-0.01-0.1-0.02-0.2-0.03-0.29
				c-0.03-0.15-0.06-0.3-0.1-0.45c-0.02-0.07-0.03-0.14-0.05-0.2c-0.05-0.17-0.1-0.32-0.16-0.48c-0.02-0.04-0.03-0.09-0.05-0.13
				c-0.07-0.17-0.15-0.34-0.23-0.5c-0.01-0.02-0.02-0.05-0.04-0.07c-0.09-0.17-0.19-0.34-0.3-0.51c-0.01-0.01-0.01-0.02-0.02-0.03
				c-0.11-0.17-0.24-0.34-0.36-0.5c-0.99-1.26-2.36-2.25-3.7-3.22c-0.2-0.15-0.4-0.29-0.6-0.44c-0.48-0.35-0.91-0.71-1.31-1.07
				c-0.04-0.04-0.08-0.07-0.11-0.11c-0.39-0.36-0.74-0.73-1.05-1.12c0,0,0,0,0,0s0,0,0,0c-0.17-0.21-0.32-0.42-0.46-0.63
				c-0.01-0.01-0.01-0.02-0.02-0.03c-0.23-0.36-0.42-0.73-0.57-1.11c-0.05-0.12-0.1-0.24-0.14-0.36c-0.05-0.16-0.1-0.33-0.14-0.5
				c-0.06-0.23-0.1-0.47-0.13-0.71c-0.02-0.14-0.03-0.28-0.04-0.42c-0.02-0.29-0.01-0.58,0.01-0.89c0.01-0.11,0.02-0.23,0.03-0.35
				c0.04-0.39,0.11-0.79,0.21-1.22c0.66-2.67-0.13-4.78-2.62-6.43c-3.58-2.37-6.6-5.44-7.53-9.8c-0.37-1.74,0.02-3.75,0.48-5.53
				c0.12-0.46,0.21-0.91,0.28-1.36c0.02-0.1,0.03-0.2,0.04-0.3c0.06-0.44,0.1-0.88,0.12-1.31c0,0,0,0,0-0.01
				c0.01-0.48-0.01-0.95-0.06-1.42c0-0.02-0.01-0.04-0.01-0.06c-0.05-0.47-0.13-0.93-0.25-1.39c-0.09-0.36-0.2-0.72-0.33-1.07
				c-0.01-0.02-0.01-0.03-0.02-0.05c-0.14-0.37-0.29-0.73-0.48-1.09c-1.04-2.06-1.14-4.07-0.05-6.23c1.5-2.97,1.6-6.03,0.18-9.17
				c-0.14-0.31-0.26-0.63-0.37-0.96c-0.27-0.77-0.47-1.56-0.64-2.37c0-0.01-0.01-0.03-0.01-0.04c-0.11-0.53-0.2-1.06-0.28-1.59
				c-0.12-0.83,0.03-2.07,0.57-2.57c2.84-2.64,2.27-5.82,1.3-8.8c-1.25-3.82-1.13-5.73,1.86-8.53c0.3-0.28,0.58-0.57,0.84-0.86
				c0.02-0.02,0.03-0.04,0.04-0.05c0.74-0.86,1.28-1.76,1.57-2.74c0,0,0,0,0,0c0.19-0.64,0.29-1.31,0.27-2.02
				c0-0.04-0.01-0.09-0.01-0.13c-0.01-0.32-0.04-0.64-0.09-0.97c-0.06-0.38-0.15-0.78-0.27-1.19c-1.11-3.8,0.4-7.43,3.91-9.57
				c2.34-1.43,3.66-3.33,4.24-5.89c0.42-1.86,0.87-3.72,1.24-5.6c0.41-2.09,1.73-3.5,3.6-4.16c0.53-0.18,1.02-0.4,1.51-0.62
				c0.27-0.13,0.53-0.28,0.78-0.42c0.18-0.1,0.37-0.2,0.54-0.3c0.34-0.21,0.67-0.43,0.98-0.66c0.06-0.05,0.13-0.09,0.19-0.14
				c0.36-0.27,0.72-0.56,1.06-0.85c0,0,0,0,0,0c1.11-0.97,2.11-2.08,3.03-3.28c0,0,0,0,0,0c0.63-0.82,1.23-1.67,1.82-2.55
				c2.17-3.24,5.03-6.01,7.47-9.09c1.73-2.18,3.72-4.01,6.41-4.74c2.4-0.65,5.04-0.56,7.34-1.41c2.26-0.84,4.94-1.99,6.18-3.84
				c0.24-0.37,0.53-0.71,0.83-1.04l0,0l0,0c1.08-1.21,2.48-2.19,4.05-2.89c0.01-0.01,0.03-0.01,0.04-0.02
				c0.51-0.23,1.04-0.43,1.58-0.59c0.01,0,0.02-0.01,0.03-0.01c1.08-0.32,2.2-0.51,3.31-0.55c0.03,0,0.06,0,0.09,0
				c0.54-0.01,1.07,0.01,1.6,0.07c0.04,0.01,0.09,0.01,0.13,0.02c0.53,0.07,1.06,0.17,1.57,0.32c0,0,0,0,0,0l0,0
				c0.27,0.08,0.54,0.17,0.8,0.27c1.57,0.62,2.93,0.48,4.32-0.39c1.71-1.07,3.49-2.03,5.19-3.11c2.06-1.3,4.22-1.54,6.44-0.64
				c0.54,0.22,1.09,0.41,1.63,0.58c0.03,0.01,0.07,0.02,0.1,0.03c0.53,0.16,1.06,0.3,1.6,0.41c0,0,0,0,0,0
				c0.8,0.16,1.59,0.23,2.38,0.22c0.15,0,0.3-0.01,0.45-0.02c0.19-0.01,0.39-0.03,0.58-0.06c0.32-0.04,0.63-0.1,0.95-0.18
				c0.11-0.03,0.23-0.07,0.34-0.1c0.3-0.09,0.6-0.19,0.89-0.31c0.11-0.05,0.23-0.09,0.34-0.15c0.38-0.17,0.77-0.37,1.15-0.6
				c0.97-0.6,2.25-0.71,3.38-1.06c0.23-0.07,0.45-0.12,0.67-0.16c0.07-0.01,0.14-0.02,0.22-0.03c0.14-0.02,0.28-0.03,0.41-0.04
				c0.08,0,0.17,0,0.25,0c0.12,0,0.24,0.01,0.35,0.02c0.09,0.01,0.17,0.02,0.26,0.04c0.11,0.02,0.22,0.05,0.32,0.07
				c0.09,0.02,0.17,0.05,0.26,0.08c0.1,0.03,0.2,0.08,0.3,0.12c0.09,0.04,0.17,0.07,0.26,0.11c0.1,0.05,0.2,0.11,0.3,0.16
				c0.08,0.05,0.17,0.09,0.25,0.14c0.16,0.1,0.33,0.21,0.5,0.33c0.01,0,0.01,0.01,0.01,0.01l0.19-1.58
				c-0.01-0.01-0.01-0.01-0.02-0.02c-0.66-0.68-2.09-1.08-3.04-0.92c-2.32,0.41-4.64,1.06-6.84,1.92c-1.89,0.73-3.63,0.99-5.55,0.21
				c-4.6-1.88-8.76-1.53-12.59,2.08c-1.49,1.4-3.62,2.02-5.93,1.37c-1.69-0.47-3.53-0.92-5.22-0.71c-4.04,0.49-7.55,2.17-10.09,5.58
				c-2.04,2.73-4.97,3.51-8.28,3.99c-2.92,0.43-6.25,1.18-8.43,2.96c-4.72,3.87-8.97,8.32-12.05,13.78
				c-1.77,3.14-4.36,5.56-7.97,6.79c-2.68,0.91-4.25,2.87-4.7,5.82c-0.36,2.33-1.05,4.63-1.82,6.86c-0.32,0.92-1.11,1.82-1.93,2.4
				c-5.23,3.74-6.89,6.81-5.43,12.28c0.6,2.25,0.18,4.11-1.53,5.55c-3.65,3.08-4.03,6.79-2.59,11.08c0.73,2.17,0.93,4.62-0.76,6.4
				c-1.17,1.24-1.43,2.5-1.23,3.92c0.21,1.49,0.66,2.95,1.1,4.39c0.86,2.8,1.89,5.79,0.39,8.45c-1.93,3.43-1,6.44,0.2,9.64
				c0.69,1.83,0.75,3.68,0.1,5.62c-0.49,1.47-0.92,3.13-0.75,4.64c0.57,5.09,3.26,9.03,7.49,11.79c2.36,1.54,3.35,3.37,2.72,6.15
				c-0.76,3.36,0.36,6.12,2.98,8.27c1.48,1.22,3.01,2.37,4.52,3.55c1.51,1.17,2.25,2.59,2.02,4.61c-0.4,3.55,0.77,6.55,3.83,8.55
				c1.81,1.18,3.71,2.31,5.7,3.14c2.94,1.23,5.25,3.16,6.74,5.87c2.2,4,5.52,5.73,9.93,6.18c3.35,0.34,6.41,1.84,8.7,4.33
				c1.88,2.04,4.29,2.92,6.72,3.34c3.29,0.56,6.7,0.56,10.06,0.54c2.58-0.02,4.74,0.76,6.82,2.21c4.02,2.81,8.24,5.18,13.43,3.65
				c1.77-0.52,3.48-1.24,5.2-1.91c2.76-1.09,5.43-1.55,8.46-0.62c4.19,1.28,8.21,0.3,11.81-2.24c3.73-2.64,7.45-4.88,12.45-3.28
				c1.61,0.51,3.93,0.09,5.45-0.76c2.07-1.16,3.69-3.14,5.5-4.77c0.77-0.7,1.47-1.51,2.33-2.07c2.55-1.64,5.34-2.53,8.41-2.55
				c1.87-0.01,3.5-0.53,4.46-2.38c0.88-1.68,2.06-3.23,2.76-4.98c1.24-3.08,3.4-4.97,6.54-5.77c3.97-1.01,5.72-3.06,6.31-7.07
				c0.25-1.71,0.69-3.51,1.52-5.01c1.54-2.78,4.04-4.64,6.93-5.97c3.33-1.53,5.04-4.1,5.01-7.81c-0.02-2.44,0.08-4.89,0.09-7.33
				c0.02-2.5,1.01-4.42,3.07-5.89c1.33-0.95,2.67-2.01,3.65-3.29c0.65-0.84,0.94-2.18,0.9-3.27c-0.06-1.7-0.56-3.38-0.85-5.07
				c-0.6-3.47,0.04-6.74,1.83-9.73c1.69-2.83,2.16-5.61,1.08-8.85c-1.33-3.97-2.75-7.99-1.25-12.35c0.76-2.21,0.44-4.54-0.38-6.79
				c-0.3-0.83-0.21-1.82-0.25-2.74c-0.14-3.44-0.94-6.52-4.2-8.42c-0.39-0.22-0.73-0.48-1.04-0.74L233.84,129.15
				C233.84,129.15,233.84,129.15,233.84,129.15z"/>
		</g>
	</g>
</g>
</svg>
